M48
METRIC,LZ,000.000
;FILE_FORMAT=3:3
;TYPE=PLATED
;Layer: PTH_Through_Via
;EasyEDA v6.5.23, 2024-02-16 22:38:03
;01767c8133624752a37afa6e83b9fffe,1f8200004d6a4d288ef555d4fcc488ac,10
;Gerber Generator version 0.2
;Holesize 1 = 0.305 mm
T01C0.305
%
G05
G90
T01
X-016510Y-005300
X-015240Y-005300
X-013970Y-005300
X-010668Y-014478
X-020447Y-009779
X-017780Y-005300
X-002159Y-015367
X-002159Y-010160
X002159Y-011430
X003429Y-010287
X-005080Y-005969
X014859Y-015494
X016891Y-014859
X018288Y-014478
X019177Y-013335
X-008382Y-001905
X-009144Y003810
X-004826Y008128
X-013716Y000254
X014732Y-003175
X013716Y-003175
X012700Y-003175
X011684Y-003175
X-005842Y011938
X-002921Y015113
X-003810Y013462
X017771Y-008010
X-016510Y004445
X-014097Y011176
X-008509Y-010287
X-010566Y013437
X004604Y011938
X010414Y013335
X002540Y-016129
M30
