G04 Layer: TopLayer*
G04 EasyEDA v6.5.23, 2024-02-16 22:38:03*
G04 01767c8133624752a37afa6e83b9fffe,1f8200004d6a4d288ef555d4fcc488ac,10*
G04 Gerber Generator version 0.2*
G04 Scale: 100 percent, Rotated: No, Reflected: No *
G04 Dimensions in millimeters *
G04 leading zeros omitted , absolute positions ,4 integer and 5 decimal *
%FSLAX45Y45*%
%MOMM*%

%AMMACRO1*21,1,$1,$2,0,0,$3*%
%ADD10C,0.3000*%
%ADD11C,0.2540*%
%ADD12R,1.0000X0.6000*%
%ADD13R,0.8000X0.8640*%
%ADD14R,0.8640X0.8000*%
%ADD15MACRO1,1.635X1.6X-143.9996*%
%ADD16MACRO1,1.635X1.6X-144.0008*%
%ADD17R,1.6350X1.6000*%
%ADD18MACRO1,1.635X1.6X143.9996*%
%ADD19MACRO1,1.635X1.6X144.0001*%
%ADD20MACRO1,1.635X1.6X107.9995*%
%ADD21MACRO1,1.635X1.6X108.0006*%
%ADD22MACRO1,1.635X1.6X71.9994*%
%ADD23MACRO1,1.635X1.6X72.0005*%
%ADD24MACRO1,1.635X1.6X35.9999*%
%ADD25MACRO1,1.635X1.6X36.0004*%
%ADD26MACRO1,1.635X1.6X-35.9992*%
%ADD27MACRO1,1.635X1.6X-36.0004*%
%ADD28R,0.8999X1.0000*%
%ADD29MACRO1,0.864X0.8065X0.0000*%
%ADD30R,0.8640X0.8065*%
%ADD31MACRO1,0.864X0.8065X90.0000*%
%ADD32MACRO1,0.864X0.8065X-90.0000*%
%ADD33O,0.5739892X2.0379944*%
%ADD34O,0.36400740000000004X1.7420082*%
%ADD35O,1.4500098000000001X0.3800094*%
%ADD36R,1.2000X1.2000*%
%ADD37C,1.2000*%
%ADD38R,1.5748X1.5748*%
%ADD39C,1.5748*%
%ADD40C,0.6096*%
%ADD41C,0.0128*%

%LPD*%
D10*
X-1778000Y-726389D02*
G01*
X-1778000Y-529996D01*
X-2032000Y603410D02*
G01*
X-2032000Y673100D01*
X-1943100Y762000D01*
X-1568289Y762000D01*
X-1415889Y609600D01*
X-1555894Y609600D02*
G01*
X-1562084Y603410D01*
X-1816100Y603410D01*
X-1612900Y-158610D02*
G01*
X-1612900Y330200D01*
X-1415889Y527210D01*
X-1415889Y609600D01*
X-1016000Y-1280213D02*
G01*
X-1016000Y-1390522D01*
X-818997Y-1587525D01*
X1383893Y-576503D02*
G01*
X1168400Y-361010D01*
X1168400Y-317500D01*
X275488Y2324100D02*
G01*
X275488Y2193292D01*
X59692Y2193292D01*
X-127000Y2006600D01*
D11*
X1773910Y-576503D02*
G01*
X1773910Y-364210D01*
X1409700Y0D01*
X951737Y0D01*
D10*
X1643913Y-1150696D02*
G01*
X1643913Y-800966D01*
D11*
X-406374Y-1454302D02*
G01*
X-343458Y-1391386D01*
X-219989Y-1391386D01*
X-219989Y-1261389D02*
G01*
X-219989Y-1020089D01*
X-215900Y-1016000D01*
D10*
X219989Y-1261389D02*
G01*
X219989Y-1147089D01*
X215900Y-1143000D01*
X82689Y-1676400D02*
G01*
X190500Y-1676400D01*
X254000Y-1612900D01*
X-215900Y-1536700D02*
G01*
X-76200Y-1676400D01*
X-57289Y-1676400D01*
D11*
X-406400Y-2152904D02*
G01*
X-400304Y-2159000D01*
X-279400Y-2159000D01*
X-279400Y-1854200D01*
X457200Y-1854200D01*
X457200Y-1810004D01*
X219989Y-1326387D02*
G01*
X299212Y-1326387D01*
X342900Y-1282700D01*
X342900Y-1028700D01*
X-1270000Y-1280213D02*
G01*
X-1270000Y-1358900D01*
X-1041374Y-1587525D01*
X-959002Y-1587525D01*
X-646429Y-2014220D02*
G01*
X-868679Y-2014220D01*
X-1016000Y-1866900D01*
X-1257300Y-1866900D01*
X-1651000Y-1473200D01*
X-1651000Y-1280160D01*
X-406400Y-2012807D02*
G01*
X-609600Y-2012807D01*
X-406400Y-2152792D02*
G01*
X-609600Y-2152792D01*
X-407670Y-1808479D02*
G01*
X-406400Y-2012695D01*
X457225Y-1454302D02*
G01*
X457225Y-1669897D01*
X-406400Y-1454404D02*
G01*
X-407670Y-1668271D01*
D10*
X-215900Y-1536700D02*
G01*
X-219986Y-1532613D01*
X-219986Y-1456413D01*
X1392715Y1428508D02*
G01*
X1392715Y1528284D01*
X1358900Y1562100D01*
X635000Y1562100D01*
X1041400Y1333500D02*
G01*
X1172700Y1333512D01*
X914400Y1333500D02*
G01*
X600135Y1333500D01*
X460435Y1193800D01*
X1172700Y1238516D02*
G01*
X1009383Y1238516D01*
X914400Y1333500D01*
X1009383Y1428483D01*
X1172700Y1428483D01*
X-329437Y2324100D02*
G01*
X-469137Y2184400D01*
X-685800Y2184400D01*
X-863600Y2006600D01*
X-889000Y2006600D01*
X-578004Y-1016000D02*
G01*
X-590704Y-1028700D01*
X-850900Y-1028700D01*
X-850900Y-1028700D02*
G01*
X-1016000Y-1028700D01*
X-1181074Y450695D02*
G01*
X-1181074Y215925D01*
X-1371600Y25400D01*
X-437997Y-1016000D02*
G01*
X-215900Y-1016000D01*
X1838909Y-1150696D02*
G01*
X1838909Y-862741D01*
X1777133Y-800966D01*
X1838909Y-576503D02*
G01*
X1838909Y-739190D01*
X1777133Y-800966D01*
X1143000Y-800966D01*
D11*
X1903907Y-1150696D02*
G01*
X1903907Y-1245692D01*
X1841500Y-1308100D01*
X1841500Y-1447800D01*
X1828800Y-1447800D01*
X1773913Y-1150696D02*
G01*
X1773913Y-1401086D01*
X1689100Y-1485900D01*
D10*
X-1016000Y-726389D02*
G01*
X-1016000Y-1280210D01*
D11*
X-2044700Y-977900D02*
G01*
X-2044700Y-368300D01*
X-2063495Y-368300D01*
X-1181100Y590804D02*
G01*
X-1181100Y673100D01*
X-825500Y1028700D01*
X-571500Y1028700D01*
X381000Y1981200D01*
X381000Y2006600D01*
X-1905000Y-1280160D02*
G01*
X-2171700Y-1013460D01*
X-2171700Y-419100D01*
X-2203704Y-368300D01*
D10*
X-1651000Y444500D02*
G01*
X-1555902Y539597D01*
X-1555902Y609600D01*
D11*
X1448892Y-576503D02*
G01*
X1448892Y-496392D01*
X1270000Y-317500D01*
X1513890Y-576503D02*
G01*
X1513890Y-459790D01*
X1371600Y-317500D01*
X1578889Y-576503D02*
G01*
X1578889Y-423189D01*
X1473200Y-317500D01*
X20848Y630387D02*
G01*
X20848Y947948D01*
X635000Y1562100D01*
X635000Y2006600D01*
X648258Y0D02*
G01*
X648258Y-270090D01*
X537639Y-380710D01*
X648258Y0D02*
G01*
X648258Y270093D01*
X550341Y368010D01*
X232509Y617687D02*
G01*
X300664Y617687D01*
X550341Y368010D01*
X-194409Y630387D02*
G01*
X219809Y630387D01*
X232509Y617687D01*
X-524941Y393410D02*
G01*
X-287964Y630387D01*
X-194409Y630387D01*
X-648258Y0D02*
G01*
X-648258Y270093D01*
X-524941Y393410D01*
X-537639Y-380710D02*
G01*
X-648258Y-270090D01*
X-648258Y0D01*
X-1524000Y-1280210D02*
G01*
X-1524000Y-1416194D01*
X-1390794Y-1549400D01*
X-1397000Y-1280210D02*
G01*
X-1397000Y-1403189D01*
X-1250789Y-1549400D01*
X-1651000Y-726389D02*
G01*
X-1651000Y-529998D01*
X-1524000Y-726389D02*
G01*
X-1524000Y-529998D01*
X-1397000Y-726389D02*
G01*
X-1397000Y-529998D01*
X-1066800Y-1447800D02*
G01*
X-1143000Y-1371600D01*
X-1143000Y-1280210D01*
D10*
X-2203610Y114300D02*
G01*
X-2203610Y291795D01*
X-2032000Y463405D01*
X-2063605Y114300D02*
G01*
X-2063605Y215900D01*
X-1816100Y463405D01*
D11*
X1903907Y-576503D02*
G01*
X1903907Y-113207D01*
X1270000Y520700D01*
X821537Y520700D01*
X795858Y546379D01*
X1968906Y-576503D02*
G01*
X1968906Y-13106D01*
X1079500Y876300D01*
X356311Y876300D01*
X326288Y906322D01*
X1708912Y-576503D02*
G01*
X1708912Y-413512D01*
X1511300Y-215900D01*
X1126337Y-215900D01*
X783158Y-559079D01*
X1383893Y-1150696D02*
G01*
X1342082Y-1150696D01*
X1143000Y-951613D01*
D10*
X1448892Y-1150696D02*
G01*
X1513890Y-1150696D01*
X1513890Y-1150696D02*
G01*
X1578889Y-1150696D01*
X1578889Y-1150696D02*
G01*
X1643913Y-1150696D01*
X1643913Y-576503D02*
G01*
X1643913Y-800966D01*
D11*
X-2203602Y-368300D02*
G01*
X-2203602Y-127000D01*
X-2203602Y-127000D02*
G01*
X-2203610Y114300D01*
X-2063597Y-368300D02*
G01*
X-2063597Y-127000D01*
X-2063597Y-127000D02*
G01*
X-2063605Y114300D01*
X-1905000Y-726389D02*
G01*
X-1905000Y-508000D01*
X-1695589Y-298589D01*
X-1612900Y-298589D01*
X-1612900Y-298589D02*
G01*
X-1371600Y-298589D01*
X1968908Y-1150696D02*
G01*
X1968908Y-1282291D01*
X1917700Y-1333500D01*
X1708912Y-1150696D02*
G01*
X1708912Y-1326387D01*
X1485900Y-1549400D01*
X-838200Y-190500D02*
G01*
X-951737Y-76962D01*
X-951737Y0D01*
X-508000Y-596900D02*
G01*
X-745337Y-596900D01*
X-783158Y-559079D01*
X-914400Y381000D02*
G01*
X-914400Y427837D01*
X-770458Y571779D01*
X-482600Y812800D02*
G01*
X-376377Y919022D01*
X-288188Y919022D01*
X-1371600Y25400D02*
G01*
X-1371600Y-158607D01*
D10*
X105486Y2324100D02*
G01*
X-178661Y2324100D01*
D11*
X-646429Y-2154428D02*
G01*
X-906271Y-2154428D01*
X-1104900Y-1955800D01*
X-1308100Y-1955800D01*
X-1778000Y-1485900D01*
X-1778000Y-1280160D01*
X-127000Y-25400D02*
G01*
X-76200Y-76200D01*
X-76200Y-1282700D01*
X127000Y-25400D02*
G01*
X76200Y-76200D01*
X76200Y-1346200D01*
X-76200Y-1282700D02*
G01*
X-119887Y-1326387D01*
X-219986Y-1326387D01*
X-406412Y-1314295D02*
G01*
X-609600Y-1314295D01*
X76200Y-1346200D02*
G01*
X121389Y-1391389D01*
X219986Y-1391389D01*
X660400Y-1314295D02*
G01*
X457212Y-1314295D01*
X457212Y-1454304D02*
G01*
X660400Y-1454304D01*
X219986Y-1391389D02*
G01*
X380138Y-1391389D01*
X457225Y-1314295D01*
X207286Y-1456413D02*
G01*
X444500Y-1454292D01*
X-609600Y-1454304D02*
G01*
X-406412Y-1454304D01*
D10*
X-219986Y-1326387D02*
G01*
X-394281Y-1326387D01*
X-406374Y-1314295D01*
X-1409700Y1117600D02*
G01*
X-1415895Y1111404D01*
X-1415895Y609600D01*
X-1409700Y1117600D02*
G01*
X-660400Y1117600D01*
X-584200Y1193800D01*
X-648563Y1689100D02*
G01*
X-648563Y1993036D01*
X-635000Y2006600D01*
X-292963Y1689100D02*
G01*
X-292963Y1918563D01*
X-381000Y2006600D01*
X-799236Y1689100D02*
G01*
X-889000Y1778863D01*
X-889000Y2006600D01*
X-443636Y1689100D02*
G01*
X-583336Y1549400D01*
X-711200Y1549400D01*
X-799236Y1637436D01*
X-799236Y1689100D01*
X-292100Y1511300D02*
G01*
X-292862Y1689100D01*
X-1056639Y1343660D02*
G01*
X-381000Y1346200D01*
D12*
G01*
X1172692Y1333500D03*
G01*
X1172692Y1238504D03*
G01*
X1172692Y1428495D03*
G01*
X1392707Y1238504D03*
G01*
X1392707Y1428495D03*
D13*
G01*
X-57302Y-1676400D03*
G01*
X82702Y-1676400D03*
D14*
G01*
X660400Y-1454302D03*
G01*
X660400Y-1314297D03*
G01*
X-609600Y-1454302D03*
G01*
X-609600Y-1314297D03*
D13*
G01*
X-437997Y-1016025D03*
G01*
X-578002Y-1016025D03*
D14*
G01*
X-406400Y-2152802D03*
G01*
X-406400Y-2012797D03*
G01*
X-609600Y-2152802D03*
G01*
X-609600Y-2012797D03*
D13*
G01*
X-1390802Y-1549400D03*
G01*
X-1250797Y-1549400D03*
G01*
X-818997Y-1587525D03*
G01*
X-959002Y-1587525D03*
G01*
X-2063597Y-368325D03*
G01*
X-2203602Y-368325D03*
G01*
X-2063597Y-127025D03*
G01*
X-2203602Y-127025D03*
G01*
X-2063597Y114274D03*
G01*
X-2203602Y114274D03*
G01*
X-1555902Y609600D03*
G01*
X-1415897Y609600D03*
D14*
G01*
X457225Y-1314297D03*
G01*
X457225Y-1454302D03*
G01*
X-406374Y-1314297D03*
G01*
X-406374Y-1454302D03*
G01*
X457225Y-1669897D03*
G01*
X457225Y-1809902D03*
G01*
X-407746Y-1668348D03*
G01*
X-407746Y-1808353D03*
G01*
X-1816100Y463397D03*
G01*
X-1816100Y603402D03*
G01*
X-2032000Y463397D03*
G01*
X-2032000Y603402D03*
D15*
G01*
X-783160Y-559089D03*
D16*
G01*
X-537639Y-380710D03*
D17*
G01*
X-951737Y0D03*
G01*
X-648258Y0D03*
D18*
G01*
X-770459Y571789D03*
D19*
G01*
X-524940Y393410D03*
D20*
G01*
X-288190Y919011D03*
D21*
G01*
X-194409Y630388D03*
D22*
G01*
X326289Y906312D03*
D23*
G01*
X232510Y617687D03*
D24*
G01*
X795858Y546389D03*
D25*
G01*
X550341Y368010D03*
D17*
G01*
X951737Y0D03*
G01*
X648258Y0D03*
D26*
G01*
X783159Y-559090D03*
D27*
G01*
X537640Y-380709D03*
D28*
G01*
X275488Y2324100D03*
G01*
X105486Y2324100D03*
D29*
G01*
X1143000Y-800975D03*
D30*
G01*
X1143000Y-951636D03*
D31*
G01*
X-648575Y1689100D03*
G01*
X-799224Y1689100D03*
G01*
X-292975Y1689100D03*
G01*
X-443624Y1689100D03*
D32*
G01*
X-329324Y2324100D03*
G01*
X-178675Y2324100D03*
D33*
G01*
X-1905000Y-1280210D03*
G01*
X-1778000Y-1280210D03*
G01*
X-1651000Y-1280210D03*
G01*
X-1524000Y-1280210D03*
G01*
X-1397000Y-1280210D03*
G01*
X-1270000Y-1280210D03*
G01*
X-1143000Y-1280210D03*
G01*
X-1016000Y-1280210D03*
G01*
X-1905000Y-726389D03*
G01*
X-1778000Y-726389D03*
G01*
X-1651000Y-726389D03*
G01*
X-1524000Y-726389D03*
G01*
X-1397000Y-726389D03*
G01*
X-1270000Y-726389D03*
G01*
X-1143000Y-726389D03*
G01*
X-1016000Y-726389D03*
D34*
G01*
X1383893Y-1150696D03*
G01*
X1448892Y-1150696D03*
G01*
X1513890Y-1150696D03*
G01*
X1578889Y-1150696D03*
G01*
X1643913Y-1150696D03*
G01*
X1708912Y-1150696D03*
G01*
X1773910Y-1150696D03*
G01*
X1838909Y-1150696D03*
G01*
X1903907Y-1150696D03*
G01*
X1968906Y-1150696D03*
G01*
X1383893Y-576503D03*
G01*
X1448892Y-576503D03*
G01*
X1513890Y-576503D03*
G01*
X1578889Y-576503D03*
G01*
X1643913Y-576503D03*
G01*
X1708912Y-576503D03*
G01*
X1773910Y-576503D03*
G01*
X1838909Y-576503D03*
G01*
X1903907Y-576503D03*
G01*
X1968906Y-576503D03*
D35*
G01*
X219989Y-1456410D03*
G01*
X219989Y-1391386D03*
G01*
X219989Y-1326387D03*
G01*
X219989Y-1261389D03*
G01*
X-219989Y-1456410D03*
G01*
X-219989Y-1391386D03*
G01*
X-219989Y-1326387D03*
G01*
X-219989Y-1261389D03*
D14*
G01*
X-1612900Y-298602D03*
G01*
X-1612900Y-158597D03*
G01*
X-1371600Y-298602D03*
G01*
X-1371600Y-158597D03*
G01*
X-1181074Y590702D03*
G01*
X-1181074Y450697D03*
D36*
G01*
X127000Y0D03*
D37*
G01*
X-127000Y0D03*
D38*
G01*
X-889000Y2006600D03*
D39*
G01*
X-635000Y2006600D03*
G01*
X-381000Y2006600D03*
G01*
X-127000Y2006600D03*
G01*
X127000Y2006600D03*
G01*
X381000Y2006600D03*
G01*
X635000Y2006600D03*
G01*
X889000Y2006600D03*
D40*
G01*
X-1651000Y-529996D03*
G01*
X-1524000Y-529996D03*
G01*
X-1397000Y-529996D03*
G01*
X-1066800Y-1447800D03*
G01*
X-2044700Y-977900D03*
G01*
X-1778000Y-529996D03*
G01*
X-215900Y-1536700D03*
G01*
X-215900Y-1016000D03*
G01*
X215900Y-1143000D03*
G01*
X342900Y-1028700D03*
G01*
X-508000Y-596900D03*
G01*
X1485900Y-1549400D03*
G01*
X1689100Y-1485900D03*
G01*
X1828800Y-1447800D03*
G01*
X1917700Y-1333500D03*
G01*
X-838200Y-190500D03*
G01*
X-914400Y381000D03*
G01*
X-482600Y812800D03*
G01*
X-1371600Y25400D03*
G01*
X1473200Y-317500D03*
G01*
X1371600Y-317500D03*
G01*
X1270000Y-317500D03*
G01*
X1168400Y-317500D03*
G01*
X-584200Y1193800D03*
G01*
X-292100Y1511300D03*
G01*
X-381000Y1346200D03*
G01*
X1777136Y-800963D03*
G01*
X-1651000Y444500D03*
G01*
X-1409700Y1117600D03*
G01*
X-850900Y-1028700D03*
G01*
X-1056563Y1343736D03*
G01*
X460425Y1193800D03*
G01*
X1041400Y1333500D03*
G01*
X254000Y-1612900D03*
M02*
