G04 Layer: TopSolderMaskLayer*
G04 EasyEDA v6.5.23, 2024-02-16 22:38:03*
G04 01767c8133624752a37afa6e83b9fffe,1f8200004d6a4d288ef555d4fcc488ac,10*
G04 Gerber Generator version 0.2*
G04 Scale: 100 percent, Rotated: No, Reflected: No *
G04 Dimensions in millimeters *
G04 leading zeros omitted , absolute positions ,4 integer and 5 decimal *
%FSLAX45Y45*%
%MOMM*%

%AMMACRO1*1,1,$1,$2,$3*1,1,$1,$4,$5*1,1,$1,0-$2,0-$3*1,1,$1,0-$4,0-$5*20,1,$1,$2,$3,$4,$5,0*20,1,$1,$4,$5,0-$2,0-$3,0*20,1,$1,0-$2,0-$3,0-$4,0-$5,0*20,1,$1,0-$4,0-$5,$2,$3,0*4,1,4,$2,$3,$4,$5,0-$2,0-$3,0-$4,0-$5,$2,$3,0*%
%ADD10MACRO1,0.1X0.5X0.3X0.5X-0.3*%
%ADD11MACRO1,0.1016X0.4X-0.432X-0.4X-0.432*%
%ADD12MACRO1,0.1016X0.432X0.4X0.432X-0.4*%
%ADD13MACRO1,0.1016X-0.4X0.432X0.4X0.432*%
%ADD14R,0.9656X0.9016*%
%ADD15MACRO1,0.1016X-0.432X-0.4X-0.432X0.4*%
%ADD16MACRO1,0.1016X0.6X-0.6X-0.6X-0.6*%
%ADD17C,1.3016*%
%ADD18MACRO1,0.1016X-0.7874X0.7874X0.7874X0.7874*%
%ADD19C,1.6764*%
%ADD20MACRO1,0.1016X1.1316X-0.1667X-0.1911X-1.1277*%
%ADD21MACRO1,0.1016X1.1316X-0.1667X-0.1912X-1.1277*%
%ADD22MACRO1,0.1016X0.8175X-0.8X-0.8175X-0.8*%
%ADD23MACRO1,0.1016X0.1911X-1.1277X-1.1316X-0.1667*%
%ADD24MACRO1,0.1016X0.1912X-1.1277X-1.1316X-0.1667*%
%ADD25MACRO1,0.1016X-0.5082X-1.0247X-1.0135X0.5303*%
%ADD26MACRO1,0.1016X-1.0135X-0.5303X-0.5082X1.0247*%
%ADD27MACRO1,0.1016X-1.1316X0.1667X0.1912X1.1277*%
%ADD28MACRO1,0.1016X-1.1316X0.1667X0.1911X1.1277*%
%ADD29MACRO1,0.1016X-0.8175X0.8X0.8175X0.8*%
%ADD30MACRO1,0.1016X-0.1912X1.1277X1.1316X0.1667*%
%ADD31MACRO1,0.1016X-0.1911X1.1277X1.1316X0.1667*%
%ADD32MACRO1,0.1016X0.45X0.5X0.45X-0.5*%
%ADD33MACRO1,0.1016X0.432X-0.4032X-0.432X-0.4032*%
%ADD34MACRO1,0.1016X0.432X0.4032X-0.432X0.4032*%
%ADD35MACRO1,0.1016X-0.4032X-0.432X-0.4032X0.432*%
%ADD36MACRO1,0.1016X0.4032X-0.432X0.4032X0.432*%
%ADD37MACRO1,0.1016X0.4032X0.432X0.4032X-0.432*%
%ADD38MACRO1,0.1016X-0.4032X0.432X-0.4032X-0.432*%
%ADD39O,0.6755891999999999X2.1395944*%
%ADD40O,0.4656074X1.8436082*%
%ADD41O,1.5516098000000003X0.4816094*%

%LPD*%
D10*
G01*
X1172690Y1333500D03*
G01*
X1172688Y1238509D03*
G01*
X1172695Y1428490D03*
G01*
X1392704Y1238496D03*
G01*
X1392704Y1428501D03*
D11*
G01*
X-57299Y-1676387D03*
G01*
X82699Y-1676387D03*
D12*
G01*
X660387Y-1454299D03*
G01*
X660387Y-1314300D03*
G01*
X-609612Y-1454299D03*
G01*
X-609612Y-1314300D03*
D13*
G01*
X-438000Y-1016012D03*
G01*
X-577999Y-1016012D03*
D12*
G01*
X-406412Y-2152799D03*
G01*
X-406412Y-2012800D03*
G01*
X-609612Y-2152799D03*
G01*
X-609612Y-2012800D03*
D11*
G01*
X-1390799Y-1549387D03*
G01*
X-1250800Y-1549387D03*
D13*
G01*
X-819000Y-1587512D03*
G01*
X-958999Y-1587512D03*
G01*
X-2063600Y-368312D03*
G01*
X-2203599Y-368312D03*
G01*
X-2063600Y-127012D03*
G01*
X-2203599Y-127012D03*
G01*
X-2063600Y114287D03*
G01*
X-2203599Y114287D03*
D11*
G01*
X-1555899Y609612D03*
G01*
X-1415900Y609612D03*
D14*
G01*
X457225Y-1314297D03*
D15*
G01*
X457212Y-1454299D03*
D14*
G01*
X-406374Y-1314297D03*
D15*
G01*
X-406387Y-1454299D03*
D14*
G01*
X457225Y-1669897D03*
D15*
G01*
X457212Y-1809899D03*
G01*
X-407751Y-1668353D03*
G01*
X-407751Y-1808352D03*
D12*
G01*
X-1816112Y463400D03*
G01*
X-1816112Y603399D03*
G01*
X-2032012Y463400D03*
G01*
X-2032012Y603399D03*
D16*
G01*
X127000Y0D03*
D17*
G01*
X-127000Y0D03*
D18*
G01*
X-889000Y2006600D03*
D19*
G01*
X-635000Y2006600D03*
G01*
X-381000Y2006600D03*
G01*
X-127000Y2006600D03*
G01*
X127000Y2006600D03*
G01*
X381000Y2006600D03*
G01*
X635000Y2006600D03*
G01*
X889000Y2006600D03*
D20*
G01*
X-783160Y-559090D03*
D21*
G01*
X-537639Y-380709D03*
D22*
G01*
X-951738Y0D03*
G01*
X-648258Y0D03*
D23*
G01*
X-770458Y571789D03*
D24*
G01*
X-524941Y393410D03*
D25*
G01*
X-288189Y919011D03*
G01*
X-194410Y630388D03*
D26*
G01*
X326289Y906311D03*
G01*
X232510Y617688D03*
D27*
G01*
X795858Y546389D03*
D28*
G01*
X550341Y368010D03*
D29*
G01*
X951738Y0D03*
G01*
X648258Y0D03*
D30*
G01*
X783160Y-559090D03*
D31*
G01*
X537639Y-380709D03*
D32*
G01*
X275490Y2324100D03*
G01*
X105491Y2324100D03*
D33*
G01*
X1143000Y-800975D03*
D34*
G01*
X1143000Y-951624D03*
D35*
G01*
X-648575Y1689100D03*
D36*
G01*
X-799224Y1689100D03*
D35*
G01*
X-292975Y1689100D03*
D36*
G01*
X-443624Y1689100D03*
D37*
G01*
X-329324Y2324100D03*
D38*
G01*
X-178675Y2324100D03*
D39*
G01*
X-1905000Y-1280210D03*
G01*
X-1778000Y-1280210D03*
G01*
X-1651000Y-1280210D03*
G01*
X-1524000Y-1280210D03*
G01*
X-1397000Y-1280210D03*
G01*
X-1270000Y-1280210D03*
G01*
X-1143000Y-1280210D03*
G01*
X-1016000Y-1280210D03*
G01*
X-1905000Y-726389D03*
G01*
X-1778000Y-726389D03*
G01*
X-1651000Y-726389D03*
G01*
X-1524000Y-726389D03*
G01*
X-1397000Y-726389D03*
G01*
X-1270000Y-726389D03*
G01*
X-1143000Y-726389D03*
G01*
X-1016000Y-726389D03*
D40*
G01*
X1383893Y-1150696D03*
G01*
X1448892Y-1150696D03*
G01*
X1513890Y-1150696D03*
G01*
X1578889Y-1150696D03*
G01*
X1643913Y-1150696D03*
G01*
X1708912Y-1150696D03*
G01*
X1773910Y-1150696D03*
G01*
X1838909Y-1150696D03*
G01*
X1903907Y-1150696D03*
G01*
X1968906Y-1150696D03*
G01*
X1383893Y-576503D03*
G01*
X1448892Y-576503D03*
G01*
X1513890Y-576503D03*
G01*
X1578889Y-576503D03*
G01*
X1643913Y-576503D03*
G01*
X1708912Y-576503D03*
G01*
X1773910Y-576503D03*
G01*
X1838909Y-576503D03*
G01*
X1903907Y-576503D03*
G01*
X1968906Y-576503D03*
D41*
G01*
X219989Y-1456410D03*
G01*
X219989Y-1391386D03*
G01*
X219989Y-1326387D03*
G01*
X219989Y-1261389D03*
G01*
X-219989Y-1456410D03*
G01*
X-219989Y-1391386D03*
G01*
X-219989Y-1326387D03*
G01*
X-219989Y-1261389D03*
D12*
G01*
X-1612912Y-298599D03*
G01*
X-1612912Y-158600D03*
G01*
X-1371612Y-298599D03*
G01*
X-1371612Y-158600D03*
D14*
G01*
X-1181074Y590702D03*
D15*
G01*
X-1181087Y450700D03*
M02*
