G04 Layer: TopSilkscreenLayer*
G04 EasyEDA v6.5.23, 2024-02-16 22:38:03*
G04 01767c8133624752a37afa6e83b9fffe,1f8200004d6a4d288ef555d4fcc488ac,10*
G04 Gerber Generator version 0.2*
G04 Scale: 100 percent, Rotated: No, Reflected: No *
G04 Dimensions in millimeters *
G04 leading zeros omitted , absolute positions ,4 integer and 5 decimal *
%FSLAX45Y45*%
%MOMM*%

%ADD10C,0.1000*%
%ADD11C,0.1524*%
%ADD12C,0.2540*%
%ADD13C,0.1520*%
%ADD14C,0.2030*%
%ADD15C,0.2032*%
%ADD16C,0.1500*%
%ADD17C,0.3000*%
%ADD18C,0.0197*%

%LPD*%
D10*
X-972565Y2219452D02*
G01*
X-942339Y2219452D01*
X-958850Y2197607D01*
X-950721Y2197607D01*
X-945134Y2195068D01*
X-942339Y2192273D01*
X-939800Y2184145D01*
X-939800Y2178557D01*
X-942339Y2170429D01*
X-947928Y2165095D01*
X-956055Y2162302D01*
X-964184Y2162302D01*
X-972565Y2165095D01*
X-975105Y2167636D01*
X-977900Y2173223D01*
X-918971Y2176018D02*
G01*
X-921765Y2173223D01*
X-918971Y2170429D01*
X-916178Y2173223D01*
X-918971Y2176018D01*
X-892810Y2219452D02*
G01*
X-862837Y2219452D01*
X-879094Y2197607D01*
X-870965Y2197607D01*
X-865631Y2195068D01*
X-862837Y2192273D01*
X-860044Y2184145D01*
X-860044Y2178557D01*
X-862837Y2170429D01*
X-868171Y2165095D01*
X-876554Y2162302D01*
X-884681Y2162302D01*
X-892810Y2165095D01*
X-895604Y2167636D01*
X-898144Y2173223D01*
X-842010Y2219452D02*
G01*
X-820165Y2162302D01*
X-798321Y2219452D02*
G01*
X-820165Y2162302D01*
X-673100Y2211323D02*
G01*
X-678434Y2216912D01*
X-686562Y2219452D01*
X-697484Y2219452D01*
X-705865Y2216912D01*
X-711200Y2211323D01*
X-711200Y2205989D01*
X-708405Y2200402D01*
X-705865Y2197607D01*
X-700278Y2195068D01*
X-684021Y2189479D01*
X-678434Y2186939D01*
X-675639Y2184145D01*
X-673100Y2178557D01*
X-673100Y2170429D01*
X-678434Y2165095D01*
X-686562Y2162302D01*
X-697484Y2162302D01*
X-705865Y2165095D01*
X-711200Y2170429D01*
X-655065Y2219452D02*
G01*
X-655065Y2162302D01*
X-655065Y2219452D02*
G01*
X-636015Y2219452D01*
X-627634Y2216912D01*
X-622300Y2211323D01*
X-619505Y2205989D01*
X-616712Y2197607D01*
X-616712Y2184145D01*
X-619505Y2176018D01*
X-622300Y2170429D01*
X-627634Y2165095D01*
X-636015Y2162302D01*
X-655065Y2162302D01*
X-577087Y2219452D02*
G01*
X-598931Y2162302D01*
X-577087Y2219452D02*
G01*
X-555244Y2162302D01*
X-590550Y2181352D02*
G01*
X-563371Y2181352D01*
X-419100Y2211323D02*
G01*
X-424434Y2216912D01*
X-432562Y2219452D01*
X-443484Y2219452D01*
X-451865Y2216912D01*
X-457200Y2211323D01*
X-457200Y2205989D01*
X-454405Y2200402D01*
X-451865Y2197607D01*
X-446278Y2195068D01*
X-430021Y2189479D01*
X-424434Y2186939D01*
X-421639Y2184145D01*
X-419100Y2178557D01*
X-419100Y2170429D01*
X-424434Y2165095D01*
X-432562Y2162302D01*
X-443484Y2162302D01*
X-451865Y2165095D01*
X-457200Y2170429D01*
X-360171Y2205989D02*
G01*
X-362712Y2211323D01*
X-368300Y2216912D01*
X-373634Y2219452D01*
X-384555Y2219452D01*
X-390144Y2216912D01*
X-395478Y2211323D01*
X-398271Y2205989D01*
X-401065Y2197607D01*
X-401065Y2184145D01*
X-398271Y2176018D01*
X-395478Y2170429D01*
X-390144Y2165095D01*
X-384555Y2162302D01*
X-373634Y2162302D01*
X-368300Y2165095D01*
X-362712Y2170429D01*
X-360171Y2176018D01*
X-342137Y2219452D02*
G01*
X-342137Y2162302D01*
X-342137Y2162302D02*
G01*
X-309371Y2162302D01*
X-162305Y2205989D02*
G01*
X-165100Y2211323D01*
X-170434Y2216912D01*
X-176021Y2219452D01*
X-186944Y2219452D01*
X-192278Y2216912D01*
X-197865Y2211323D01*
X-200405Y2205989D01*
X-203200Y2197607D01*
X-203200Y2184145D01*
X-200405Y2176018D01*
X-197865Y2170429D01*
X-192278Y2165095D01*
X-186944Y2162302D01*
X-176021Y2162302D01*
X-170434Y2165095D01*
X-165100Y2170429D01*
X-162305Y2176018D01*
X-162305Y2184145D01*
X-176021Y2184145D02*
G01*
X-162305Y2184145D01*
X-144271Y2219452D02*
G01*
X-144271Y2162302D01*
X-144271Y2219452D02*
G01*
X-106171Y2162302D01*
X-106171Y2219452D02*
G01*
X-106171Y2162302D01*
X-88137Y2219452D02*
G01*
X-88137Y2162302D01*
X-88137Y2219452D02*
G01*
X-69087Y2219452D01*
X-60960Y2216912D01*
X-55371Y2211323D01*
X-52578Y2205989D01*
X-50037Y2197607D01*
X-50037Y2184145D01*
X-52578Y2176018D01*
X-55371Y2170429D01*
X-60960Y2165095D01*
X-69087Y2162302D01*
X-88137Y2162302D01*
X63500Y2219452D02*
G01*
X63500Y2162302D01*
X63500Y2219452D02*
G01*
X82550Y2219452D01*
X90678Y2216912D01*
X96265Y2211323D01*
X99060Y2205989D01*
X101600Y2197607D01*
X101600Y2184145D01*
X99060Y2176018D01*
X96265Y2170429D01*
X90678Y2165095D01*
X82550Y2162302D01*
X63500Y2162302D01*
X119634Y2219452D02*
G01*
X119634Y2162302D01*
X119634Y2219452D02*
G01*
X144271Y2219452D01*
X152400Y2216912D01*
X155194Y2214118D01*
X157987Y2208529D01*
X157987Y2203195D01*
X155194Y2197607D01*
X152400Y2195068D01*
X144271Y2192273D01*
X119634Y2192273D01*
X138684Y2192273D02*
G01*
X157987Y2162302D01*
X175768Y2219452D02*
G01*
X175768Y2162302D01*
X175768Y2219452D02*
G01*
X195071Y2219452D01*
X203200Y2216912D01*
X208534Y2211323D01*
X211328Y2205989D01*
X214121Y2197607D01*
X214121Y2184145D01*
X211328Y2176018D01*
X208534Y2170429D01*
X203200Y2165095D01*
X195071Y2162302D01*
X175768Y2162302D01*
X279400Y2219452D02*
G01*
X301244Y2162302D01*
X323087Y2219452D02*
G01*
X301244Y2162302D01*
X341121Y2219452D02*
G01*
X341121Y2162302D01*
X341121Y2219452D02*
G01*
X365505Y2219452D01*
X373887Y2216912D01*
X376428Y2214118D01*
X379221Y2208529D01*
X379221Y2203195D01*
X376428Y2197607D01*
X373887Y2195068D01*
X365505Y2192273D01*
X341121Y2192273D01*
X360171Y2192273D02*
G01*
X379221Y2162302D01*
X397255Y2219452D02*
G01*
X397255Y2162302D01*
X397255Y2219452D02*
G01*
X432562Y2219452D01*
X397255Y2192273D02*
G01*
X419100Y2192273D01*
X397255Y2162302D02*
G01*
X432562Y2162302D01*
X450595Y2219452D02*
G01*
X450595Y2162302D01*
X450595Y2219452D02*
G01*
X486155Y2219452D01*
X450595Y2192273D02*
G01*
X472439Y2192273D01*
X546100Y2219452D02*
G01*
X567944Y2162302D01*
X589787Y2219452D02*
G01*
X567944Y2162302D01*
X607821Y2219452D02*
G01*
X607821Y2162302D01*
X607821Y2162302D02*
G01*
X640587Y2162302D01*
X658368Y2219452D02*
G01*
X658368Y2162302D01*
X658368Y2219452D02*
G01*
X693928Y2219452D01*
X658368Y2192273D02*
G01*
X680212Y2192273D01*
X658368Y2162302D02*
G01*
X693928Y2162302D01*
X711962Y2219452D02*
G01*
X711962Y2162302D01*
X711962Y2219452D02*
G01*
X731012Y2219452D01*
X739139Y2216912D01*
X744728Y2211323D01*
X747268Y2205989D01*
X750062Y2197607D01*
X750062Y2184145D01*
X747268Y2176018D01*
X744728Y2170429D01*
X739139Y2165095D01*
X731012Y2162302D01*
X711962Y2162302D01*
X800100Y2219452D02*
G01*
X800100Y2162302D01*
X800100Y2162302D02*
G01*
X832865Y2162302D01*
X850900Y2219452D02*
G01*
X850900Y2162302D01*
X850900Y2219452D02*
G01*
X886205Y2219452D01*
X850900Y2192273D02*
G01*
X872744Y2192273D01*
X850900Y2162302D02*
G01*
X886205Y2162302D01*
X904239Y2219452D02*
G01*
X904239Y2162302D01*
X904239Y2219452D02*
G01*
X923289Y2219452D01*
X931671Y2216912D01*
X937005Y2211323D01*
X939800Y2205989D01*
X942339Y2197607D01*
X942339Y2184145D01*
X939800Y2176018D01*
X937005Y2170429D01*
X931671Y2165095D01*
X923289Y2162302D01*
X904239Y2162302D01*
X960373Y2219452D02*
G01*
X960373Y2162302D01*
X960373Y2219452D02*
G01*
X985012Y2219452D01*
X993139Y2216912D01*
X995934Y2214118D01*
X998728Y2208529D01*
X998728Y2203195D01*
X995934Y2197607D01*
X993139Y2195068D01*
X985012Y2192273D01*
X960373Y2192273D01*
X979678Y2192273D02*
G01*
X998728Y2162302D01*
D11*
X1130300Y1639315D02*
G01*
X1130300Y1561337D01*
X1135379Y1545844D01*
X1145794Y1535429D01*
X1161542Y1530350D01*
X1171955Y1530350D01*
X1187450Y1535429D01*
X1197863Y1545844D01*
X1202944Y1561337D01*
X1202944Y1639315D01*
X1299718Y1639315D02*
G01*
X1247647Y1639315D01*
X1242568Y1592579D01*
X1247647Y1597660D01*
X1263395Y1602994D01*
X1278889Y1602994D01*
X1294384Y1597660D01*
X1304797Y1587500D01*
X1310131Y1571752D01*
X1310131Y1561337D01*
X1304797Y1545844D01*
X1294384Y1535429D01*
X1278889Y1530350D01*
X1263395Y1530350D01*
X1247647Y1535429D01*
X1242568Y1540510D01*
X1237234Y1550923D01*
X230378Y-1701292D02*
G01*
X225044Y-1690878D01*
X214629Y-1680463D01*
X204470Y-1675384D01*
X183642Y-1675384D01*
X173228Y-1680463D01*
X162813Y-1690878D01*
X157479Y-1701292D01*
X152400Y-1717039D01*
X152400Y-1742947D01*
X157479Y-1758442D01*
X162813Y-1768855D01*
X173228Y-1779270D01*
X183642Y-1784350D01*
X204470Y-1784350D01*
X214629Y-1779270D01*
X225044Y-1768855D01*
X230378Y-1758442D01*
X264668Y-1696212D02*
G01*
X275081Y-1690878D01*
X290576Y-1675384D01*
X290576Y-1784350D01*
X330200Y-1701292D02*
G01*
X330200Y-1696212D01*
X335279Y-1685797D01*
X340360Y-1680463D01*
X350773Y-1675384D01*
X371602Y-1675384D01*
X382015Y-1680463D01*
X387350Y-1685797D01*
X392429Y-1696212D01*
X392429Y-1706626D01*
X387350Y-1717039D01*
X376936Y-1732534D01*
X324865Y-1784350D01*
X397510Y-1784350D01*
X662178Y-1117092D02*
G01*
X656844Y-1106678D01*
X646429Y-1096263D01*
X636270Y-1091184D01*
X615442Y-1091184D01*
X605028Y-1096263D01*
X594613Y-1106678D01*
X589279Y-1117092D01*
X584200Y-1132839D01*
X584200Y-1158747D01*
X589279Y-1174242D01*
X594613Y-1184655D01*
X605028Y-1195070D01*
X615442Y-1200150D01*
X636270Y-1200150D01*
X646429Y-1195070D01*
X656844Y-1184655D01*
X662178Y-1174242D01*
X696468Y-1112012D02*
G01*
X706881Y-1106678D01*
X722376Y-1091184D01*
X722376Y-1200150D01*
X-811021Y-1320292D02*
G01*
X-816355Y-1309878D01*
X-826770Y-1299463D01*
X-836929Y-1294384D01*
X-857757Y-1294384D01*
X-868171Y-1299463D01*
X-878586Y-1309878D01*
X-883920Y-1320292D01*
X-889000Y-1336039D01*
X-889000Y-1361947D01*
X-883920Y-1377442D01*
X-878586Y-1387855D01*
X-868171Y-1398270D01*
X-857757Y-1403350D01*
X-836929Y-1403350D01*
X-826770Y-1398270D01*
X-816355Y-1387855D01*
X-811021Y-1377442D01*
X-771652Y-1320292D02*
G01*
X-771652Y-1315212D01*
X-766318Y-1304797D01*
X-761237Y-1299463D01*
X-750823Y-1294384D01*
X-729995Y-1294384D01*
X-719581Y-1299463D01*
X-714502Y-1304797D01*
X-709168Y-1315212D01*
X-709168Y-1325626D01*
X-714502Y-1336039D01*
X-724915Y-1351534D01*
X-776731Y-1403350D01*
X-704087Y-1403350D01*
X-645916Y-1129792D02*
G01*
X-651250Y-1119378D01*
X-661664Y-1108963D01*
X-671824Y-1103884D01*
X-692652Y-1103884D01*
X-703066Y-1108963D01*
X-713480Y-1119378D01*
X-718814Y-1129792D01*
X-723894Y-1145539D01*
X-723894Y-1171447D01*
X-718814Y-1186942D01*
X-713480Y-1197355D01*
X-703066Y-1207770D01*
X-692652Y-1212850D01*
X-671824Y-1212850D01*
X-661664Y-1207770D01*
X-651250Y-1197355D01*
X-645916Y-1186942D01*
X-601212Y-1103884D02*
G01*
X-544062Y-1103884D01*
X-575304Y-1145539D01*
X-559810Y-1145539D01*
X-549396Y-1150620D01*
X-544062Y-1155700D01*
X-538982Y-1171447D01*
X-538982Y-1181862D01*
X-544062Y-1197355D01*
X-554476Y-1207770D01*
X-570224Y-1212850D01*
X-585718Y-1212850D01*
X-601212Y-1207770D01*
X-606546Y-1202689D01*
X-611626Y-1192276D01*
X-228092Y-2071878D02*
G01*
X-217678Y-2066544D01*
X-207263Y-2056129D01*
X-202184Y-2045970D01*
X-202184Y-2025142D01*
X-207263Y-2014728D01*
X-217678Y-2004313D01*
X-228092Y-1998979D01*
X-243839Y-1993900D01*
X-269747Y-1993900D01*
X-285242Y-1998979D01*
X-295655Y-2004313D01*
X-306070Y-2014728D01*
X-311150Y-2025142D01*
X-311150Y-2045970D01*
X-306070Y-2056129D01*
X-295655Y-2066544D01*
X-285242Y-2071878D01*
X-202184Y-2157984D02*
G01*
X-274828Y-2106168D01*
X-274828Y-2184145D01*
X-202184Y-2157984D02*
G01*
X-311150Y-2157984D01*
X-799673Y-1877545D02*
G01*
X-805007Y-1867131D01*
X-815421Y-1856717D01*
X-825581Y-1851637D01*
X-846409Y-1851637D01*
X-856823Y-1856717D01*
X-867237Y-1867131D01*
X-872571Y-1877545D01*
X-877651Y-1893293D01*
X-877651Y-1919201D01*
X-872571Y-1934695D01*
X-867237Y-1945109D01*
X-856823Y-1955523D01*
X-846409Y-1960603D01*
X-825581Y-1960603D01*
X-815421Y-1955523D01*
X-805007Y-1945109D01*
X-799673Y-1934695D01*
X-703153Y-1851637D02*
G01*
X-754969Y-1851637D01*
X-760303Y-1898373D01*
X-754969Y-1893293D01*
X-739475Y-1887959D01*
X-723981Y-1887959D01*
X-708233Y-1893293D01*
X-697819Y-1903453D01*
X-692739Y-1919201D01*
X-692739Y-1929615D01*
X-697819Y-1945109D01*
X-708233Y-1955523D01*
X-723981Y-1960603D01*
X-739475Y-1960603D01*
X-754969Y-1955523D01*
X-760303Y-1950443D01*
X-765383Y-1940029D01*
X-1204716Y-1675892D02*
G01*
X-1210050Y-1665478D01*
X-1220464Y-1655063D01*
X-1230624Y-1649984D01*
X-1251452Y-1649984D01*
X-1261866Y-1655063D01*
X-1272280Y-1665478D01*
X-1277614Y-1675892D01*
X-1282694Y-1691639D01*
X-1282694Y-1717547D01*
X-1277614Y-1733042D01*
X-1272280Y-1743455D01*
X-1261866Y-1753870D01*
X-1251452Y-1758950D01*
X-1230624Y-1758950D01*
X-1220464Y-1753870D01*
X-1210050Y-1743455D01*
X-1204716Y-1733042D01*
X-1108196Y-1665478D02*
G01*
X-1113276Y-1655063D01*
X-1129024Y-1649984D01*
X-1139184Y-1649984D01*
X-1154932Y-1655063D01*
X-1165346Y-1670812D01*
X-1170426Y-1696720D01*
X-1170426Y-1722628D01*
X-1165346Y-1743455D01*
X-1154932Y-1753870D01*
X-1139184Y-1758950D01*
X-1134104Y-1758950D01*
X-1118610Y-1753870D01*
X-1108196Y-1743455D01*
X-1102862Y-1727962D01*
X-1102862Y-1722628D01*
X-1108196Y-1707134D01*
X-1118610Y-1696720D01*
X-1134104Y-1691639D01*
X-1139184Y-1691639D01*
X-1154932Y-1696720D01*
X-1165346Y-1707134D01*
X-1170426Y-1722628D01*
X-849116Y-1713992D02*
G01*
X-854450Y-1703578D01*
X-864864Y-1693163D01*
X-875024Y-1688084D01*
X-895852Y-1688084D01*
X-906266Y-1693163D01*
X-916680Y-1703578D01*
X-922014Y-1713992D01*
X-927094Y-1729739D01*
X-927094Y-1755647D01*
X-922014Y-1771142D01*
X-916680Y-1781555D01*
X-906266Y-1791970D01*
X-895852Y-1797050D01*
X-875024Y-1797050D01*
X-864864Y-1791970D01*
X-854450Y-1781555D01*
X-849116Y-1771142D01*
X-742182Y-1688084D02*
G01*
X-793998Y-1797050D01*
X-814826Y-1688084D02*
G01*
X-742182Y-1688084D01*
X-1890534Y-256893D02*
G01*
X-1895868Y-246479D01*
X-1906282Y-236065D01*
X-1916442Y-230985D01*
X-1937270Y-230985D01*
X-1947684Y-236065D01*
X-1958098Y-246479D01*
X-1963432Y-256893D01*
X-1968512Y-272641D01*
X-1968512Y-298549D01*
X-1963432Y-314043D01*
X-1958098Y-324457D01*
X-1947684Y-334871D01*
X-1937270Y-339951D01*
X-1916442Y-339951D01*
X-1906282Y-334871D01*
X-1895868Y-324457D01*
X-1890534Y-314043D01*
X-1830336Y-230985D02*
G01*
X-1845830Y-236065D01*
X-1851164Y-246479D01*
X-1851164Y-256893D01*
X-1845830Y-267307D01*
X-1835416Y-272641D01*
X-1814842Y-277721D01*
X-1799094Y-282801D01*
X-1788680Y-293215D01*
X-1783600Y-303629D01*
X-1783600Y-319377D01*
X-1788680Y-329791D01*
X-1794014Y-334871D01*
X-1809508Y-339951D01*
X-1830336Y-339951D01*
X-1845830Y-334871D01*
X-1851164Y-329791D01*
X-1856244Y-319377D01*
X-1856244Y-303629D01*
X-1851164Y-293215D01*
X-1840750Y-282801D01*
X-1825002Y-277721D01*
X-1804428Y-272641D01*
X-1794014Y-267307D01*
X-1788680Y-256893D01*
X-1788680Y-246479D01*
X-1794014Y-236065D01*
X-1809508Y-230985D01*
X-1830336Y-230985D01*
X-1890534Y-95194D02*
G01*
X-1895868Y-84780D01*
X-1906282Y-74366D01*
X-1916442Y-69286D01*
X-1937270Y-69286D01*
X-1947684Y-74366D01*
X-1958098Y-84780D01*
X-1963432Y-95194D01*
X-1968512Y-110942D01*
X-1968512Y-136850D01*
X-1963432Y-152344D01*
X-1958098Y-162758D01*
X-1947684Y-173172D01*
X-1937270Y-178252D01*
X-1916442Y-178252D01*
X-1906282Y-173172D01*
X-1895868Y-162758D01*
X-1890534Y-152344D01*
X-1788680Y-105608D02*
G01*
X-1794014Y-121102D01*
X-1804428Y-131516D01*
X-1819922Y-136850D01*
X-1825002Y-136850D01*
X-1840750Y-131516D01*
X-1851164Y-121102D01*
X-1856244Y-105608D01*
X-1856244Y-100528D01*
X-1851164Y-84780D01*
X-1840750Y-74366D01*
X-1825002Y-69286D01*
X-1819922Y-69286D01*
X-1804428Y-74366D01*
X-1794014Y-84780D01*
X-1788680Y-105608D01*
X-1788680Y-131516D01*
X-1794014Y-157678D01*
X-1804428Y-173172D01*
X-1819922Y-178252D01*
X-1830336Y-178252D01*
X-1845830Y-173172D01*
X-1851164Y-162758D01*
X-1890516Y139303D02*
G01*
X-1895850Y149717D01*
X-1906264Y160131D01*
X-1916424Y165211D01*
X-1937252Y165211D01*
X-1947666Y160131D01*
X-1958080Y149717D01*
X-1963414Y139303D01*
X-1968494Y123555D01*
X-1968494Y97647D01*
X-1963414Y82153D01*
X-1958080Y71739D01*
X-1947666Y61325D01*
X-1937252Y56245D01*
X-1916424Y56245D01*
X-1906264Y61325D01*
X-1895850Y71739D01*
X-1890516Y82153D01*
X-1856226Y144383D02*
G01*
X-1845812Y149717D01*
X-1830318Y165211D01*
X-1830318Y56245D01*
X-1764786Y165211D02*
G01*
X-1780534Y160131D01*
X-1790694Y144383D01*
X-1796028Y118475D01*
X-1796028Y102981D01*
X-1790694Y76819D01*
X-1780534Y61325D01*
X-1764786Y56245D01*
X-1754372Y56245D01*
X-1738878Y61325D01*
X-1728464Y76819D01*
X-1723384Y102981D01*
X-1723384Y118475D01*
X-1728464Y144383D01*
X-1738878Y160131D01*
X-1754372Y165211D01*
X-1764786Y165211D01*
X-1407916Y787907D02*
G01*
X-1413250Y798321D01*
X-1423664Y808736D01*
X-1433824Y813815D01*
X-1454652Y813815D01*
X-1465066Y808736D01*
X-1475480Y798321D01*
X-1480814Y787907D01*
X-1485894Y772160D01*
X-1485894Y746252D01*
X-1480814Y730757D01*
X-1475480Y720344D01*
X-1465066Y709929D01*
X-1454652Y704850D01*
X-1433824Y704850D01*
X-1423664Y709929D01*
X-1413250Y720344D01*
X-1407916Y730757D01*
X-1373626Y792987D02*
G01*
X-1363212Y798321D01*
X-1347718Y813815D01*
X-1347718Y704850D01*
X-1313428Y792987D02*
G01*
X-1303014Y798321D01*
X-1287520Y813815D01*
X-1287520Y704850D01*
X406400Y-1091184D02*
G01*
X406400Y-1200150D01*
X406400Y-1091184D02*
G01*
X453136Y-1091184D01*
X468629Y-1096263D01*
X473963Y-1101597D01*
X479044Y-1112012D01*
X479044Y-1122426D01*
X473963Y-1132839D01*
X468629Y-1137920D01*
X453136Y-1143000D01*
X406400Y-1143000D01*
X442721Y-1143000D02*
G01*
X479044Y-1200150D01*
X513334Y-1112012D02*
G01*
X523747Y-1106678D01*
X539495Y-1091184D01*
X539495Y-1200150D01*
X-457200Y-1103884D02*
G01*
X-457200Y-1212850D01*
X-457200Y-1103884D02*
G01*
X-410463Y-1103884D01*
X-394970Y-1108963D01*
X-389636Y-1114297D01*
X-384555Y-1124712D01*
X-384555Y-1135126D01*
X-389636Y-1145539D01*
X-394970Y-1150620D01*
X-410463Y-1155700D01*
X-457200Y-1155700D01*
X-420878Y-1155700D02*
G01*
X-384555Y-1212850D01*
X-344931Y-1129792D02*
G01*
X-344931Y-1124712D01*
X-339852Y-1114297D01*
X-334518Y-1108963D01*
X-324104Y-1103884D01*
X-303529Y-1103884D01*
X-293115Y-1108963D01*
X-287781Y-1114297D01*
X-282702Y-1124712D01*
X-282702Y-1135126D01*
X-287781Y-1145539D01*
X-298195Y-1161034D01*
X-350265Y-1212850D01*
X-277368Y-1212850D01*
X546100Y-1662684D02*
G01*
X546100Y-1771650D01*
X546100Y-1662684D02*
G01*
X592836Y-1662684D01*
X608329Y-1667763D01*
X613663Y-1673097D01*
X618744Y-1683512D01*
X618744Y-1693926D01*
X613663Y-1704339D01*
X608329Y-1709420D01*
X592836Y-1714500D01*
X546100Y-1714500D01*
X582421Y-1714500D02*
G01*
X618744Y-1771650D01*
X663447Y-1662684D02*
G01*
X720597Y-1662684D01*
X689610Y-1704339D01*
X705104Y-1704339D01*
X715518Y-1709420D01*
X720597Y-1714500D01*
X725931Y-1730247D01*
X725931Y-1740662D01*
X720597Y-1756155D01*
X710184Y-1766570D01*
X694689Y-1771650D01*
X679195Y-1771650D01*
X663447Y-1766570D01*
X658368Y-1761489D01*
X653034Y-1751076D01*
X-318863Y-1686537D02*
G01*
X-318863Y-1795503D01*
X-318863Y-1686537D02*
G01*
X-272127Y-1686537D01*
X-256633Y-1691617D01*
X-251299Y-1696951D01*
X-246219Y-1707365D01*
X-246219Y-1717779D01*
X-251299Y-1728193D01*
X-256633Y-1733273D01*
X-272127Y-1738353D01*
X-318863Y-1738353D01*
X-282541Y-1738353D02*
G01*
X-246219Y-1795503D01*
X-159859Y-1686537D02*
G01*
X-211929Y-1759181D01*
X-133951Y-1759181D01*
X-159859Y-1686537D02*
G01*
X-159859Y-1795503D01*
X-1866894Y356615D02*
G01*
X-1866894Y247650D01*
X-1866894Y356615D02*
G01*
X-1820158Y356615D01*
X-1804664Y351536D01*
X-1799330Y346202D01*
X-1794250Y335787D01*
X-1794250Y325373D01*
X-1799330Y314960D01*
X-1804664Y309879D01*
X-1820158Y304800D01*
X-1866894Y304800D01*
X-1830572Y304800D02*
G01*
X-1794250Y247650D01*
X-1697476Y356615D02*
G01*
X-1749546Y356615D01*
X-1754626Y309879D01*
X-1749546Y314960D01*
X-1733798Y320294D01*
X-1718304Y320294D01*
X-1702810Y314960D01*
X-1692396Y304800D01*
X-1687062Y289052D01*
X-1687062Y278637D01*
X-1692396Y263144D01*
X-1702810Y252729D01*
X-1718304Y247650D01*
X-1733798Y247650D01*
X-1749546Y252729D01*
X-1754626Y257810D01*
X-1759960Y268223D01*
X-2311648Y576821D02*
G01*
X-2311648Y467855D01*
X-2311648Y576821D02*
G01*
X-2264912Y576821D01*
X-2249418Y571741D01*
X-2244084Y566407D01*
X-2239004Y555993D01*
X-2239004Y545579D01*
X-2244084Y535165D01*
X-2249418Y530085D01*
X-2264912Y525005D01*
X-2311648Y525005D01*
X-2275326Y525005D02*
G01*
X-2239004Y467855D01*
X-2142230Y561327D02*
G01*
X-2147564Y571741D01*
X-2163058Y576821D01*
X-2173472Y576821D01*
X-2188966Y571741D01*
X-2199380Y555993D01*
X-2204714Y530085D01*
X-2204714Y504177D01*
X-2199380Y483349D01*
X-2188966Y472935D01*
X-2173472Y467855D01*
X-2168138Y467855D01*
X-2152644Y472935D01*
X-2142230Y483349D01*
X-2137150Y498843D01*
X-2137150Y504177D01*
X-2142230Y519671D01*
X-2152644Y530085D01*
X-2168138Y535165D01*
X-2173472Y535165D01*
X-2188966Y530085D01*
X-2199380Y519671D01*
X-2204714Y504177D01*
X-76200Y420115D02*
G01*
X-76200Y311150D01*
X-76200Y420115D02*
G01*
X-39878Y420115D01*
X-24129Y415036D01*
X-13970Y404621D01*
X-8636Y394207D01*
X-3555Y378460D01*
X-3555Y352552D01*
X-8636Y337057D01*
X-13970Y326644D01*
X-24129Y316229D01*
X-39878Y311150D01*
X-76200Y311150D01*
X30734Y399287D02*
G01*
X41147Y404621D01*
X56895Y420115D01*
X56895Y311150D01*
X-1154429Y2045715D02*
G01*
X-1154429Y1962657D01*
X-1159763Y1946910D01*
X-1164844Y1941829D01*
X-1175257Y1936750D01*
X-1185671Y1936750D01*
X-1196086Y1941829D01*
X-1201420Y1946910D01*
X-1206500Y1962657D01*
X-1206500Y1973071D01*
X-1068323Y2045715D02*
G01*
X-1120139Y1973071D01*
X-1042415Y1973071D01*
X-1068323Y2045715D02*
G01*
X-1068323Y1936750D01*
X-1032982Y-452805D02*
G01*
X-968933Y-540961D01*
X-968933Y-540961D02*
G01*
X-918588Y-504385D01*
X-954895Y-396074D02*
G01*
X-890846Y-484228D01*
X-954895Y-396074D02*
G01*
X-900234Y-356362D01*
X-924438Y-437995D02*
G01*
X-890737Y-413509D01*
X-890846Y-484228D02*
G01*
X-836185Y-444515D01*
X-872495Y-336204D02*
G01*
X-808446Y-424360D01*
X-872495Y-336204D02*
G01*
X-842904Y-314705D01*
X-827382Y-309709D01*
X-812835Y-312013D01*
X-802604Y-317451D01*
X-789033Y-327058D01*
X-773805Y-348018D01*
X-769012Y-363687D01*
X-767001Y-375099D01*
X-769305Y-389646D01*
X-778855Y-402861D01*
X-808446Y-424360D01*
X-773534Y-290052D02*
G01*
X-768245Y-279615D01*
X-764816Y-257972D01*
X-700768Y-346128D01*
X-1104900Y255015D02*
G01*
X-1104900Y146050D01*
X-1104900Y146050D02*
G01*
X-1042670Y146050D01*
X-1008379Y255015D02*
G01*
X-1008379Y146050D01*
X-1008379Y255015D02*
G01*
X-940815Y255015D01*
X-1008379Y203200D02*
G01*
X-966723Y203200D01*
X-1008379Y146050D02*
G01*
X-940815Y146050D01*
X-906526Y255015D02*
G01*
X-906526Y146050D01*
X-906526Y255015D02*
G01*
X-869950Y255015D01*
X-854455Y249936D01*
X-844042Y239521D01*
X-838962Y229107D01*
X-833628Y213360D01*
X-833628Y187452D01*
X-838962Y171957D01*
X-844042Y161544D01*
X-854455Y151129D01*
X-869950Y146050D01*
X-906526Y146050D01*
X-794257Y229107D02*
G01*
X-794257Y234187D01*
X-788923Y244602D01*
X-783844Y249936D01*
X-773429Y255015D01*
X-752602Y255015D01*
X-742187Y249936D01*
X-737107Y244602D01*
X-731773Y234187D01*
X-731773Y223773D01*
X-737107Y213360D01*
X-747521Y197865D01*
X-799337Y146050D01*
X-726694Y146050D01*
X-757717Y867991D02*
G01*
X-821766Y779838D01*
X-821766Y779838D02*
G01*
X-771423Y743259D01*
X-679632Y811258D02*
G01*
X-743681Y723104D01*
X-679632Y811258D02*
G01*
X-624972Y771545D01*
X-710090Y769338D02*
G01*
X-676386Y744854D01*
X-743681Y723104D02*
G01*
X-689020Y683392D01*
X-597232Y751390D02*
G01*
X-661281Y663237D01*
X-597232Y751390D02*
G01*
X-567641Y729891D01*
X-558091Y716676D01*
X-555787Y702127D01*
X-557799Y690717D01*
X-562742Y674842D01*
X-577969Y653882D01*
X-591390Y644481D01*
X-601621Y639041D01*
X-616168Y636739D01*
X-631690Y641738D01*
X-661281Y663237D01*
X-502089Y682266D02*
G01*
X-455853Y648675D01*
X-505612Y633336D01*
X-493077Y624230D01*
X-487639Y613999D01*
X-486310Y606752D01*
X-491456Y591027D01*
X-497578Y582602D01*
X-510794Y573051D01*
X-525343Y570750D01*
X-541068Y575896D01*
X-553603Y585005D01*
X-563153Y598220D01*
X-564479Y605467D01*
X-562467Y616874D01*
X-118930Y1165936D02*
G01*
X-222562Y1132263D01*
X-222562Y1132263D02*
G01*
X-203332Y1073081D01*
X-89103Y1074140D02*
G01*
X-192735Y1040467D01*
X-89103Y1074140D02*
G01*
X-68224Y1009883D01*
X-138384Y1058128D02*
G01*
X-125511Y1018509D01*
X-192735Y1040467D02*
G01*
X-171856Y976210D01*
X-57630Y977272D02*
G01*
X-161259Y943599D01*
X-57630Y977272D02*
G01*
X-46327Y942484D01*
X-46370Y926180D01*
X-53058Y913056D01*
X-61389Y905007D01*
X-74719Y895070D01*
X-99359Y887061D01*
X-115742Y887346D01*
X-127218Y888959D01*
X-140340Y895647D01*
X-149959Y908812D01*
X-161259Y943599D01*
X-8493Y826048D02*
G01*
X-93593Y852881D01*
X-69496Y778718D01*
X-8493Y826048D02*
G01*
X-112125Y792375D01*
X42727Y823033D02*
G01*
X146359Y789360D01*
X146359Y789360D02*
G01*
X165590Y848542D01*
X72555Y914829D02*
G01*
X176187Y881156D01*
X72555Y914829D02*
G01*
X93433Y979086D01*
X121836Y898817D02*
G01*
X134708Y938436D01*
X176187Y881156D02*
G01*
X197065Y945413D01*
X104030Y1011697D02*
G01*
X207662Y978024D01*
X104030Y1011697D02*
G01*
X115333Y1046482D01*
X124952Y1059649D01*
X138074Y1066337D01*
X149547Y1067950D01*
X166174Y1068156D01*
X190812Y1060150D01*
X203901Y1050289D01*
X212237Y1042240D01*
X218920Y1029116D01*
X218963Y1012812D01*
X207662Y978024D01*
X156382Y1172824D02*
G01*
X140370Y1123543D01*
X183172Y1104031D01*
X179989Y1110670D01*
X179702Y1127056D01*
X184490Y1141790D01*
X194431Y1155120D01*
X207312Y1161884D01*
X223857Y1161849D01*
X233763Y1158631D01*
X246928Y1149012D01*
X253613Y1135890D01*
X253578Y1119342D01*
X248790Y1104607D01*
X239171Y1091440D01*
X232691Y1087940D01*
X221218Y1086327D01*
X516420Y639389D02*
G01*
X580466Y551235D01*
X580466Y551235D02*
G01*
X630811Y587814D01*
X594504Y696122D02*
G01*
X658553Y607969D01*
X594504Y696122D02*
G01*
X649165Y735835D01*
X624961Y654202D02*
G01*
X658662Y678687D01*
X658553Y607969D02*
G01*
X713214Y647682D01*
X676904Y755990D02*
G01*
X740953Y667837D01*
X676904Y755990D02*
G01*
X706495Y777491D01*
X722017Y782487D01*
X736564Y780183D01*
X746795Y774745D01*
X760366Y765139D01*
X775594Y744179D01*
X780387Y728510D01*
X782398Y717097D01*
X780094Y702553D01*
X770544Y689335D01*
X740953Y667837D01*
X823074Y843036D02*
G01*
X812843Y848476D01*
X797118Y843330D01*
X788692Y837209D01*
X779142Y823991D01*
X779975Y805131D01*
X791095Y781184D01*
X806322Y760227D01*
X822675Y746361D01*
X837219Y744057D01*
X852741Y749056D01*
X857056Y752190D01*
X866607Y765408D01*
X868908Y779952D01*
X864118Y795621D01*
X860983Y799939D01*
X847559Y809337D01*
X833015Y811641D01*
X817493Y806643D01*
X813178Y803508D01*
X803628Y790290D01*
X801326Y775746D01*
X806322Y760227D01*
X774700Y255015D02*
G01*
X774700Y146050D01*
X774700Y146050D02*
G01*
X836929Y146050D01*
X871220Y255015D02*
G01*
X871220Y146050D01*
X871220Y255015D02*
G01*
X938784Y255015D01*
X871220Y203200D02*
G01*
X912876Y203200D01*
X871220Y146050D02*
G01*
X938784Y146050D01*
X973073Y255015D02*
G01*
X973073Y146050D01*
X973073Y255015D02*
G01*
X1009650Y255015D01*
X1025144Y249936D01*
X1035557Y239521D01*
X1040637Y229107D01*
X1045971Y213360D01*
X1045971Y187452D01*
X1040637Y171957D01*
X1035557Y161544D01*
X1025144Y151129D01*
X1009650Y146050D01*
X973073Y146050D01*
X1152905Y255015D02*
G01*
X1101089Y146050D01*
X1080262Y255015D02*
G01*
X1152905Y255015D01*
X753579Y-236908D02*
G01*
X689531Y-325064D01*
X689531Y-325064D02*
G01*
X739876Y-361640D01*
X831667Y-293641D02*
G01*
X767618Y-381795D01*
X831667Y-293641D02*
G01*
X886327Y-333354D01*
X801209Y-335561D02*
G01*
X834910Y-360045D01*
X767618Y-381795D02*
G01*
X822279Y-421510D01*
X914069Y-353509D02*
G01*
X850021Y-441665D01*
X914069Y-353509D02*
G01*
X943658Y-375008D01*
X953208Y-388223D01*
X955512Y-402770D01*
X953500Y-414182D01*
X948560Y-430057D01*
X933330Y-451017D01*
X919909Y-460418D01*
X909678Y-465856D01*
X895131Y-468160D01*
X879609Y-463163D01*
X850021Y-441665D01*
X1021745Y-431741D02*
G01*
X1006226Y-426742D01*
X995789Y-432033D01*
X989667Y-440458D01*
X987861Y-452018D01*
X993150Y-462455D01*
X1006810Y-478657D01*
X1016563Y-492023D01*
X1018867Y-506569D01*
X1016855Y-517982D01*
X1007600Y-530722D01*
X997369Y-536160D01*
X990069Y-537136D01*
X974547Y-532137D01*
X957696Y-519897D01*
X948148Y-506679D01*
X946818Y-499435D01*
X948829Y-488022D01*
X958085Y-475282D01*
X968316Y-469844D01*
X982863Y-467540D01*
X998385Y-472536D01*
X1018219Y-480669D01*
X1029782Y-482475D01*
X1040218Y-477184D01*
X1046340Y-468759D01*
X1048143Y-457200D01*
X1038595Y-443984D01*
X1021745Y-431741D01*
X401584Y2381250D02*
G01*
X401584Y2272284D01*
X401584Y2272284D02*
G01*
X463814Y2272284D01*
X498104Y2381250D02*
G01*
X498104Y2272284D01*
X498104Y2381250D02*
G01*
X565668Y2381250D01*
X498104Y2329434D02*
G01*
X539760Y2329434D01*
X498104Y2272284D02*
G01*
X565668Y2272284D01*
X599958Y2381250D02*
G01*
X599958Y2272284D01*
X599958Y2381250D02*
G01*
X636534Y2381250D01*
X652028Y2376170D01*
X662442Y2365755D01*
X667522Y2355342D01*
X672856Y2339594D01*
X672856Y2313686D01*
X667522Y2298192D01*
X662442Y2287778D01*
X652028Y2277363D01*
X636534Y2272284D01*
X599958Y2272284D01*
X774710Y2344928D02*
G01*
X769376Y2329434D01*
X758962Y2319020D01*
X743468Y2313686D01*
X738134Y2313686D01*
X722640Y2319020D01*
X712226Y2329434D01*
X707146Y2344928D01*
X707146Y2350007D01*
X712226Y2365755D01*
X722640Y2376170D01*
X738134Y2381250D01*
X743468Y2381250D01*
X758962Y2376170D01*
X769376Y2365755D01*
X774710Y2344928D01*
X774710Y2319020D01*
X769376Y2292857D01*
X758962Y2277363D01*
X743468Y2272284D01*
X733054Y2272284D01*
X717560Y2277363D01*
X712226Y2287778D01*
X876302Y-824484D02*
G01*
X876302Y-933450D01*
X876302Y-824484D02*
G01*
X923038Y-824484D01*
X938532Y-829563D01*
X943866Y-834897D01*
X948946Y-845312D01*
X948946Y-855726D01*
X943866Y-866139D01*
X938532Y-871220D01*
X923038Y-876300D01*
X876302Y-876300D01*
X912624Y-876300D02*
G01*
X948946Y-933450D01*
X1056134Y-824484D02*
G01*
X1004064Y-933450D01*
X983236Y-824484D02*
G01*
X1056134Y-824484D01*
X-1079500Y1740915D02*
G01*
X-1079500Y1631950D01*
X-1079500Y1740915D02*
G01*
X-1032763Y1740915D01*
X-1017270Y1735836D01*
X-1011936Y1730502D01*
X-1006855Y1720087D01*
X-1006855Y1709673D01*
X-1011936Y1699260D01*
X-1017270Y1694179D01*
X-1032763Y1689100D01*
X-1079500Y1689100D01*
X-1043178Y1689100D02*
G01*
X-1006855Y1631950D01*
X-946404Y1740915D02*
G01*
X-962152Y1735836D01*
X-967231Y1725421D01*
X-967231Y1715007D01*
X-962152Y1704594D01*
X-951737Y1699260D01*
X-930910Y1694179D01*
X-915415Y1689100D01*
X-905002Y1678686D01*
X-899668Y1668271D01*
X-899668Y1652523D01*
X-905002Y1642110D01*
X-910081Y1637029D01*
X-925829Y1631950D01*
X-946404Y1631950D01*
X-962152Y1637029D01*
X-967231Y1642110D01*
X-972565Y1652523D01*
X-972565Y1668271D01*
X-967231Y1678686D01*
X-956818Y1689100D01*
X-941323Y1694179D01*
X-920495Y1699260D01*
X-910081Y1704594D01*
X-905002Y1715007D01*
X-905002Y1725421D01*
X-910081Y1735836D01*
X-925829Y1740915D01*
X-946404Y1740915D01*
X-177800Y1740915D02*
G01*
X-177800Y1631950D01*
X-177800Y1740915D02*
G01*
X-131063Y1740915D01*
X-115570Y1735836D01*
X-110236Y1730502D01*
X-105155Y1720087D01*
X-105155Y1709673D01*
X-110236Y1699260D01*
X-115570Y1694179D01*
X-131063Y1689100D01*
X-177800Y1689100D01*
X-141478Y1689100D02*
G01*
X-105155Y1631950D01*
X-3302Y1704594D02*
G01*
X-8381Y1689100D01*
X-18795Y1678686D01*
X-34289Y1673352D01*
X-39623Y1673352D01*
X-55118Y1678686D01*
X-65531Y1689100D01*
X-70865Y1704594D01*
X-70865Y1709673D01*
X-65531Y1725421D01*
X-55118Y1735836D01*
X-39623Y1740915D01*
X-34289Y1740915D01*
X-18795Y1735836D01*
X-8381Y1725421D01*
X-3302Y1704594D01*
X-3302Y1678686D01*
X-8381Y1652523D01*
X-18795Y1637029D01*
X-34289Y1631950D01*
X-44704Y1631950D01*
X-60452Y1637029D01*
X-65531Y1647444D01*
X-684529Y2381250D02*
G01*
X-684529Y2272284D01*
X-684529Y2381250D02*
G01*
X-637794Y2381250D01*
X-622300Y2376170D01*
X-616965Y2370836D01*
X-611886Y2360421D01*
X-611886Y2350007D01*
X-616965Y2339594D01*
X-622300Y2334513D01*
X-637794Y2329434D01*
X-684529Y2329434D01*
X-648207Y2329434D02*
G01*
X-611886Y2272284D01*
X-577595Y2360421D02*
G01*
X-567181Y2365755D01*
X-551434Y2381250D01*
X-551434Y2272284D01*
X-486155Y2381250D02*
G01*
X-501650Y2376170D01*
X-512063Y2360421D01*
X-517144Y2334513D01*
X-517144Y2319020D01*
X-512063Y2292857D01*
X-501650Y2277363D01*
X-486155Y2272284D01*
X-475742Y2272284D01*
X-459994Y2277363D01*
X-449579Y2292857D01*
X-444500Y2319020D01*
X-444500Y2334513D01*
X-449579Y2360421D01*
X-459994Y2376170D01*
X-475742Y2381250D01*
X-486155Y2381250D01*
X-927100Y-875284D02*
G01*
X-927102Y-953262D01*
X-922020Y-968755D01*
X-911605Y-979170D01*
X-895857Y-984250D01*
X-885444Y-984250D01*
X-869950Y-979170D01*
X-859536Y-968755D01*
X-854455Y-953262D01*
X-854455Y-875284D01*
X-814831Y-901192D02*
G01*
X-814829Y-896112D01*
X-809752Y-885697D01*
X-804418Y-880363D01*
X-794004Y-875284D01*
X-773429Y-875284D01*
X-763013Y-880363D01*
X-757681Y-885695D01*
X-752602Y-896112D01*
X-752602Y-906526D01*
X-757681Y-916939D01*
X-768095Y-932434D01*
X-820165Y-984250D01*
X-747268Y-984250D01*
X1651000Y-316484D02*
G01*
X1651000Y-394462D01*
X1656079Y-409955D01*
X1666494Y-420370D01*
X1682242Y-425450D01*
X1692655Y-425450D01*
X1708150Y-420370D01*
X1718563Y-409955D01*
X1723644Y-394462D01*
X1723644Y-316484D01*
X1768347Y-316484D02*
G01*
X1825497Y-316484D01*
X1794510Y-358139D01*
X1810004Y-358139D01*
X1820418Y-363220D01*
X1825497Y-368300D01*
X1830831Y-384047D01*
X1830831Y-394462D01*
X1825497Y-409955D01*
X1815084Y-420370D01*
X1799589Y-425450D01*
X1784095Y-425450D01*
X1768347Y-420370D01*
X1763268Y-415289D01*
X1757934Y-404876D01*
X-63500Y-1065784D02*
G01*
X-63500Y-1143762D01*
X-58420Y-1159255D01*
X-48005Y-1169670D01*
X-32257Y-1174750D01*
X-21844Y-1174750D01*
X-6350Y-1169670D01*
X4063Y-1159255D01*
X9144Y-1143762D01*
X9144Y-1065784D01*
X43434Y-1086612D02*
G01*
X53847Y-1081278D01*
X69595Y-1065784D01*
X69595Y-1174750D01*
X-1713229Y39115D02*
G01*
X-1713229Y-43942D01*
X-1718563Y-59689D01*
X-1723644Y-64770D01*
X-1734057Y-69850D01*
X-1744471Y-69850D01*
X-1754886Y-64770D01*
X-1760220Y-59689D01*
X-1765300Y-43942D01*
X-1765300Y-33528D01*
X-1678939Y18287D02*
G01*
X-1668779Y23621D01*
X-1653031Y39115D01*
X-1653031Y-69850D01*
X-1218133Y-252984D02*
G01*
X-1218133Y-336042D01*
X-1223213Y-351789D01*
X-1228547Y-356870D01*
X-1238707Y-361950D01*
X-1249121Y-361950D01*
X-1259535Y-356870D01*
X-1264869Y-351789D01*
X-1269949Y-336042D01*
X-1269949Y-325628D01*
X-1178509Y-278892D02*
G01*
X-1178509Y-273812D01*
X-1173429Y-263397D01*
X-1168095Y-258063D01*
X-1157681Y-252984D01*
X-1137107Y-252984D01*
X-1126693Y-258063D01*
X-1121359Y-263397D01*
X-1116279Y-273812D01*
X-1116279Y-284226D01*
X-1121359Y-294639D01*
X-1131773Y-310134D01*
X-1183843Y-361950D01*
X-1110945Y-361950D01*
X-1052829Y597915D02*
G01*
X-1052829Y514857D01*
X-1058163Y499110D01*
X-1063244Y494029D01*
X-1073657Y488950D01*
X-1084071Y488950D01*
X-1094486Y494029D01*
X-1099820Y499110D01*
X-1104900Y514857D01*
X-1104900Y525271D01*
X-1008379Y597915D02*
G01*
X-951229Y597915D01*
X-982218Y556260D01*
X-966723Y556260D01*
X-956310Y551179D01*
X-951229Y546100D01*
X-945895Y530352D01*
X-945895Y519937D01*
X-951229Y504444D01*
X-961389Y494029D01*
X-977137Y488950D01*
X-992631Y488950D01*
X-1008379Y494029D01*
X-1013460Y499110D01*
X-1018539Y509523D01*
G36*
X-463550Y-232816D02*
G01*
X-475894Y-241757D01*
X-387553Y-363321D01*
X-375259Y-354330D01*
G37*
G36*
X-516635Y76098D02*
G01*
X-516635Y-74117D01*
X-501396Y-74117D01*
X-501396Y76098D01*
G37*
G36*
X-373684Y377596D02*
G01*
X-462026Y256082D01*
X-449681Y247091D01*
X-361391Y368655D01*
G37*
G36*
X-81330Y528726D02*
G01*
X-224231Y482295D01*
X-219506Y467766D01*
X-76606Y514197D01*
G37*
G36*
X121361Y515416D02*
G01*
X116636Y500888D01*
X259537Y454456D01*
X264210Y468985D01*
G37*
G36*
X400253Y350621D02*
G01*
X387959Y341630D01*
X476250Y220116D01*
X488594Y229057D01*
G37*
G36*
X501396Y74117D02*
G01*
X501396Y-76098D01*
X516635Y-76098D01*
X516635Y74117D01*
G37*
G36*
X462381Y-234391D02*
G01*
X374091Y-355955D01*
X386384Y-364896D01*
X474726Y-243382D01*
G37*
G36*
X179476Y2360117D02*
G01*
X178511Y2288133D01*
X204470Y2324100D01*
G37*
D12*
X1352550Y1485897D02*
G01*
X1212852Y1485902D01*
X1324945Y1193802D02*
G01*
X1240467Y1193802D01*
X1371602Y1371597D02*
G01*
X1371602Y1295402D01*
D13*
X-114467Y-1741535D02*
G01*
X-38267Y-1741535D01*
X138534Y-1741535D02*
G01*
X62334Y-1741535D01*
X138534Y-1609415D02*
G01*
X62334Y-1609415D01*
D11*
X138534Y-1609415D02*
G01*
X153763Y-1624657D01*
X153763Y-1726300D01*
X138534Y-1741535D01*
D13*
X-114467Y-1609415D02*
G01*
X-38267Y-1609415D01*
D11*
X-114467Y-1741535D02*
G01*
X-129710Y-1726300D01*
X-129710Y-1624657D01*
X-114467Y-1609415D01*
D13*
X725535Y-1511467D02*
G01*
X725535Y-1435267D01*
X725535Y-1258465D02*
G01*
X725535Y-1334665D01*
X593415Y-1258465D02*
G01*
X593415Y-1334665D01*
D11*
X593415Y-1258465D02*
G01*
X608657Y-1243236D01*
X710300Y-1243236D01*
X725535Y-1258465D01*
D13*
X593415Y-1511467D02*
G01*
X593415Y-1435267D01*
D11*
X725535Y-1511467D02*
G01*
X710300Y-1526710D01*
X608657Y-1526710D01*
X593415Y-1511467D01*
D13*
X-544464Y-1511467D02*
G01*
X-544464Y-1435267D01*
X-544464Y-1258465D02*
G01*
X-544464Y-1334665D01*
X-676584Y-1258465D02*
G01*
X-676584Y-1334665D01*
D11*
X-676584Y-1258465D02*
G01*
X-661342Y-1243236D01*
X-559699Y-1243236D01*
X-544464Y-1258465D01*
D13*
X-676584Y-1511467D02*
G01*
X-676584Y-1435267D01*
D11*
X-544464Y-1511467D02*
G01*
X-559699Y-1526710D01*
X-661342Y-1526710D01*
X-676584Y-1511467D01*
D13*
X-380832Y-950864D02*
G01*
X-457032Y-950864D01*
X-633834Y-950864D02*
G01*
X-557634Y-950864D01*
X-633834Y-1082984D02*
G01*
X-557634Y-1082984D01*
D11*
X-633834Y-1082984D02*
G01*
X-649063Y-1067742D01*
X-649063Y-966099D01*
X-633834Y-950864D01*
D13*
X-380832Y-1082984D02*
G01*
X-457032Y-1082984D01*
D11*
X-380832Y-950864D02*
G01*
X-365589Y-966099D01*
X-365589Y-1067742D01*
X-380832Y-1082984D01*
D13*
X-341264Y-2209967D02*
G01*
X-341264Y-2133767D01*
X-341264Y-1956965D02*
G01*
X-341264Y-2033165D01*
X-473384Y-1956965D02*
G01*
X-473384Y-2033165D01*
D11*
X-473384Y-1956965D02*
G01*
X-458142Y-1941736D01*
X-356499Y-1941736D01*
X-341264Y-1956965D01*
D13*
X-473384Y-2209967D02*
G01*
X-473384Y-2133767D01*
D11*
X-341264Y-2209967D02*
G01*
X-356499Y-2225210D01*
X-458142Y-2225210D01*
X-473384Y-2209967D01*
D13*
X-544464Y-2209967D02*
G01*
X-544464Y-2133767D01*
X-544464Y-1956965D02*
G01*
X-544464Y-2033165D01*
X-676584Y-1956965D02*
G01*
X-676584Y-2033165D01*
D11*
X-676584Y-1956965D02*
G01*
X-661342Y-1941736D01*
X-559699Y-1941736D01*
X-544464Y-1956965D01*
D13*
X-676584Y-2209967D02*
G01*
X-676584Y-2133767D01*
D11*
X-544464Y-2209967D02*
G01*
X-559699Y-2225210D01*
X-661342Y-2225210D01*
X-676584Y-2209967D01*
D13*
X-1447967Y-1614535D02*
G01*
X-1371767Y-1614535D01*
X-1194965Y-1614535D02*
G01*
X-1271165Y-1614535D01*
X-1194965Y-1482415D02*
G01*
X-1271165Y-1482415D01*
D11*
X-1194965Y-1482415D02*
G01*
X-1179736Y-1497657D01*
X-1179736Y-1599300D01*
X-1194965Y-1614535D01*
D13*
X-1447967Y-1482415D02*
G01*
X-1371767Y-1482415D01*
D11*
X-1447967Y-1614535D02*
G01*
X-1463210Y-1599300D01*
X-1463210Y-1497657D01*
X-1447967Y-1482415D01*
D13*
X-761832Y-1522364D02*
G01*
X-838032Y-1522364D01*
X-1014834Y-1522364D02*
G01*
X-938634Y-1522364D01*
X-1014834Y-1654484D02*
G01*
X-938634Y-1654484D01*
D11*
X-1014834Y-1654484D02*
G01*
X-1030063Y-1639242D01*
X-1030063Y-1537599D01*
X-1014834Y-1522364D01*
D13*
X-761832Y-1654484D02*
G01*
X-838032Y-1654484D01*
D11*
X-761832Y-1522364D02*
G01*
X-746589Y-1537599D01*
X-746589Y-1639242D01*
X-761832Y-1654484D01*
D13*
X-2006432Y-303164D02*
G01*
X-2082632Y-303164D01*
X-2259434Y-303164D02*
G01*
X-2183234Y-303164D01*
X-2259434Y-435284D02*
G01*
X-2183234Y-435284D01*
D11*
X-2259434Y-435284D02*
G01*
X-2274663Y-420042D01*
X-2274663Y-318399D01*
X-2259434Y-303164D01*
D13*
X-2006432Y-435284D02*
G01*
X-2082632Y-435284D01*
D11*
X-2006432Y-303164D02*
G01*
X-1991189Y-318399D01*
X-1991189Y-420042D01*
X-2006432Y-435284D01*
D13*
X-2006432Y-61864D02*
G01*
X-2082632Y-61864D01*
X-2259434Y-61864D02*
G01*
X-2183234Y-61864D01*
X-2259434Y-193984D02*
G01*
X-2183234Y-193984D01*
D11*
X-2259434Y-193984D02*
G01*
X-2274663Y-178742D01*
X-2274663Y-77099D01*
X-2259434Y-61864D01*
D13*
X-2006432Y-193984D02*
G01*
X-2082632Y-193984D01*
D11*
X-2006432Y-61864D02*
G01*
X-1991189Y-77099D01*
X-1991189Y-178742D01*
X-2006432Y-193984D01*
D13*
X-2006432Y179435D02*
G01*
X-2082632Y179435D01*
X-2259434Y179435D02*
G01*
X-2183234Y179435D01*
X-2259434Y47315D02*
G01*
X-2183234Y47315D01*
D11*
X-2259434Y47315D02*
G01*
X-2274663Y62557D01*
X-2274663Y164200D01*
X-2259434Y179435D01*
D13*
X-2006432Y47315D02*
G01*
X-2082632Y47315D01*
D11*
X-2006432Y179435D02*
G01*
X-1991189Y164200D01*
X-1991189Y62557D01*
X-2006432Y47315D01*
D13*
X-1613067Y544464D02*
G01*
X-1536867Y544464D01*
X-1360065Y544464D02*
G01*
X-1436265Y544464D01*
X-1360065Y676584D02*
G01*
X-1436265Y676584D01*
D11*
X-1360065Y676584D02*
G01*
X-1344836Y661342D01*
X-1344836Y559699D01*
X-1360065Y544464D01*
D13*
X-1613067Y676584D02*
G01*
X-1536867Y676584D01*
D11*
X-1613067Y544464D02*
G01*
X-1628310Y559699D01*
X-1628310Y661342D01*
X-1613067Y676584D01*
D13*
X392064Y-1257132D02*
G01*
X392064Y-1333332D01*
X392064Y-1510134D02*
G01*
X392064Y-1433934D01*
X524184Y-1510134D02*
G01*
X524184Y-1433934D01*
D11*
X524184Y-1510134D02*
G01*
X508942Y-1525363D01*
X407299Y-1525363D01*
X392064Y-1510134D01*
D13*
X524184Y-1257132D02*
G01*
X524184Y-1333332D01*
D11*
X392064Y-1257132D02*
G01*
X407299Y-1241889D01*
X508942Y-1241889D01*
X524184Y-1257132D01*
D13*
X-471535Y-1257132D02*
G01*
X-471535Y-1333332D01*
X-471535Y-1510134D02*
G01*
X-471535Y-1433934D01*
X-339415Y-1510134D02*
G01*
X-339415Y-1433934D01*
D11*
X-339415Y-1510134D02*
G01*
X-354657Y-1525363D01*
X-456300Y-1525363D01*
X-471535Y-1510134D01*
D13*
X-339415Y-1257132D02*
G01*
X-339415Y-1333332D01*
D11*
X-471535Y-1257132D02*
G01*
X-456300Y-1241889D01*
X-354657Y-1241889D01*
X-339415Y-1257132D01*
D13*
X392064Y-1612732D02*
G01*
X392064Y-1688932D01*
X392064Y-1865734D02*
G01*
X392064Y-1789534D01*
X524184Y-1865734D02*
G01*
X524184Y-1789534D01*
D11*
X524184Y-1865734D02*
G01*
X508942Y-1880963D01*
X407299Y-1880963D01*
X392064Y-1865734D01*
D13*
X524184Y-1612732D02*
G01*
X524184Y-1688932D01*
D11*
X392064Y-1612732D02*
G01*
X407299Y-1597489D01*
X508942Y-1597489D01*
X524184Y-1612732D01*
D13*
X-472899Y-1611185D02*
G01*
X-472899Y-1687385D01*
X-472899Y-1864187D02*
G01*
X-472899Y-1787987D01*
X-340779Y-1864187D02*
G01*
X-340779Y-1787987D01*
D11*
X-340779Y-1864187D02*
G01*
X-356021Y-1879417D01*
X-457664Y-1879417D01*
X-472899Y-1864187D01*
D13*
X-340779Y-1611185D02*
G01*
X-340779Y-1687385D01*
D11*
X-472899Y-1611185D02*
G01*
X-457664Y-1595942D01*
X-356021Y-1595942D01*
X-340779Y-1611185D01*
D13*
X-1750964Y406232D02*
G01*
X-1750964Y482432D01*
X-1750964Y659234D02*
G01*
X-1750964Y583034D01*
X-1883084Y659234D02*
G01*
X-1883084Y583034D01*
D11*
X-1883084Y659234D02*
G01*
X-1867842Y674463D01*
X-1766199Y674463D01*
X-1750964Y659234D01*
D13*
X-1883084Y406232D02*
G01*
X-1883084Y482432D01*
D11*
X-1750964Y406232D02*
G01*
X-1766199Y390989D01*
X-1867842Y390989D01*
X-1883084Y406232D01*
D13*
X-1966864Y406232D02*
G01*
X-1966864Y482432D01*
X-1966864Y659234D02*
G01*
X-1966864Y583034D01*
X-2098984Y659234D02*
G01*
X-2098984Y583034D01*
D11*
X-2098984Y659234D02*
G01*
X-2083742Y674463D01*
X-1982099Y674463D01*
X-1966864Y659234D01*
D13*
X-2098984Y406232D02*
G01*
X-2098984Y482432D01*
D11*
X-1966864Y406232D02*
G01*
X-1982099Y390989D01*
X-2083742Y390989D01*
X-2098984Y406232D01*
D12*
X239687Y-315889D02*
G01*
X242912Y-315889D01*
X317500Y-241302D01*
X228600Y-152402D01*
X153423Y-229623D02*
G01*
X239687Y-315889D01*
D14*
X1016000Y2133600D02*
G01*
X-825500Y2133600D01*
D15*
X1016000Y2133600D02*
G01*
X1016000Y1879600D01*
X-1016000Y1879600D01*
X-1016000Y2133600D01*
X-825500Y2133600D01*
D16*
X-404431Y-381576D02*
G01*
X-399727Y-388048D01*
X-404152Y-415985D01*
X-805423Y-707524D01*
X-929446Y-536821D01*
X-528982Y-245869D01*
X-404431Y-381576D02*
G01*
X-499653Y-250515D01*
X-528982Y-245869D01*
X-540999Y-78999D02*
G01*
X-540999Y-87000D01*
X-560999Y-107000D01*
X-1056998Y-107000D01*
X-1056998Y104000D01*
X-561997Y104000D01*
X-540999Y-78999D02*
G01*
X-540999Y83002D01*
X-561997Y104000D01*
X-484598Y266453D02*
G01*
X-489303Y259979D01*
X-517237Y255554D01*
X-918509Y547095D01*
X-794486Y717798D01*
X-394022Y426844D01*
X-484598Y266453D02*
G01*
X-389376Y397515D01*
X-394022Y426844D01*
X-236397Y503963D02*
G01*
X-244007Y501492D01*
X-269206Y514332D01*
X-422480Y986055D01*
X-221808Y1051260D01*
X-68844Y580486D01*
X-236397Y503963D02*
G01*
X-82326Y554027D01*
X-68844Y580486D01*
X124233Y540090D02*
G01*
X116624Y542561D01*
X103781Y567763D01*
X257053Y1039484D01*
X457728Y974283D01*
X304764Y503509D01*
X124233Y540090D02*
G01*
X278305Y490026D01*
X304764Y503509D01*
X417131Y368876D02*
G01*
X412427Y375348D01*
X416852Y403283D01*
X818123Y694827D01*
X942146Y524121D01*
X541682Y233169D01*
X417131Y368876D02*
G01*
X512353Y237815D01*
X541682Y233169D01*
X540999Y78999D02*
G01*
X540999Y87000D01*
X560999Y107000D01*
X1056998Y107000D01*
X1056998Y-104000D01*
X561997Y-104000D01*
X540999Y78999D02*
G01*
X540999Y-83002D01*
X561997Y-104000D01*
X497298Y-253753D02*
G01*
X502003Y-247279D01*
X529937Y-242854D01*
X931209Y-534395D01*
X807186Y-705098D01*
X406722Y-414144D01*
X497298Y-253753D02*
G01*
X402079Y-384815D01*
X406722Y-414144D01*
X227500Y2397099D02*
G01*
X342498Y2397099D01*
X342498Y2252101D01*
X222498Y2252101D01*
X160500Y2251100D02*
G01*
X36499Y2251100D01*
X36499Y2396098D01*
X160500Y2396098D01*
X342498Y2397099D02*
G01*
X345500Y2397099D01*
X365500Y2377099D01*
X365500Y2275100D01*
X362498Y2272101D01*
X342498Y2252101D01*
D11*
X1209060Y-833678D02*
G01*
X1209060Y-737791D01*
X1076939Y-737791D01*
X1076939Y-833678D01*
X1209060Y-918921D02*
G01*
X1209060Y-1014808D01*
X1076939Y-1014808D01*
X1076939Y-918921D01*
X-681278Y1623039D02*
G01*
X-585391Y1623039D01*
X-585391Y1755160D01*
X-681278Y1755160D01*
X-766521Y1623039D02*
G01*
X-862408Y1623039D01*
X-862408Y1755160D01*
X-766521Y1755160D01*
X-325678Y1623039D02*
G01*
X-229791Y1623039D01*
X-229791Y1755160D01*
X-325678Y1755160D01*
X-410921Y1623039D02*
G01*
X-506808Y1623039D01*
X-506808Y1755160D01*
X-410921Y1755160D01*
X-296621Y2390160D02*
G01*
X-392508Y2390160D01*
X-392508Y2258039D01*
X-296621Y2258039D01*
X-211378Y2390160D02*
G01*
X-115491Y2390160D01*
X-115491Y2258039D01*
X-211378Y2258039D01*
X-1963099Y-1155440D02*
G01*
X-1963120Y-851159D01*
X-957879Y-851159D01*
X-957879Y-1155440D01*
X-1963120Y-1155440D01*
X1343779Y-1040739D02*
G01*
X1343779Y-686460D01*
X2009020Y-686460D01*
X2009020Y-1040739D01*
X1343779Y-1040739D01*
X107139Y-1516519D02*
G01*
X-107139Y-1516519D01*
X-107139Y-1201280D01*
X107139Y-1201280D01*
X107139Y-1516519D01*
D13*
X-1547764Y-355767D02*
G01*
X-1547764Y-279567D01*
X-1547764Y-102765D02*
G01*
X-1547764Y-178965D01*
X-1679884Y-102765D02*
G01*
X-1679884Y-178965D01*
D11*
X-1679884Y-102765D02*
G01*
X-1664642Y-87536D01*
X-1562999Y-87536D01*
X-1547764Y-102765D01*
D13*
X-1679884Y-355767D02*
G01*
X-1679884Y-279567D01*
D11*
X-1547764Y-355767D02*
G01*
X-1562999Y-371010D01*
X-1664642Y-371010D01*
X-1679884Y-355767D01*
D13*
X-1306464Y-355767D02*
G01*
X-1306464Y-279567D01*
X-1306464Y-102765D02*
G01*
X-1306464Y-178965D01*
X-1438584Y-102765D02*
G01*
X-1438584Y-178965D01*
D11*
X-1438584Y-102765D02*
G01*
X-1423342Y-87536D01*
X-1321699Y-87536D01*
X-1306464Y-102765D01*
D13*
X-1438584Y-355767D02*
G01*
X-1438584Y-279567D01*
D11*
X-1306464Y-355767D02*
G01*
X-1321699Y-371010D01*
X-1423342Y-371010D01*
X-1438584Y-355767D01*
D13*
X-1246235Y647867D02*
G01*
X-1246235Y571667D01*
X-1246235Y394865D02*
G01*
X-1246235Y471065D01*
X-1114115Y394865D02*
G01*
X-1114115Y471065D01*
D11*
X-1114115Y394865D02*
G01*
X-1129357Y379636D01*
X-1231000Y379636D01*
X-1246235Y394865D01*
D13*
X-1114115Y647867D02*
G01*
X-1114115Y571667D01*
D11*
X-1246235Y647867D02*
G01*
X-1231000Y663110D01*
X-1129357Y663110D01*
X-1114115Y647867D01*
D12*
G75*
G01
X275006Y0D02*
G03X275006Y0I-275006J0D01*
D17*
G75*
G01
X-1889989Y-1080211D02*
G03X-1889989Y-1080211I-15011J0D01*
G75*
G01
X-1963928Y-1280211D02*
G03X-1963928Y-1280211I-15011J0D01*
G75*
G01
X1398905Y-965505D02*
G03X1398905Y-965505I-15011J0D01*
G75*
G01
X1335481Y-1150696D02*
G03X1335481Y-1150696I-15011J0D01*
G75*
G01
X46914Y-1456411D02*
G03X46914Y-1456411I-15011J0D01*
G75*
G01
X228117Y-1519834D02*
G03X228117Y-1519834I-15011J0D01*
M02*
